<?xml version="1.0" encoding="UTF-8" standalone="no"?>
<!-- Creator: CorelDRAW X6 -->

<svg
   xmlns:dc="http://purl.org/dc/elements/1.1/"
   xmlns:cc="http://creativecommons.org/ns#"
   xmlns:rdf="http://www.w3.org/1999/02/22-rdf-syntax-ns#"
   xmlns:svg="http://www.w3.org/2000/svg"
   xmlns="http://www.w3.org/2000/svg"
   xmlns:sodipodi="http://sodipodi.sourceforge.net/DTD/sodipodi-0.dtd"
   xmlns:inkscape="http://www.inkscape.org/namespaces/inkscape"
   xml:space="preserve"
   width="210mm"
   height="297mm"
   version="1.1"
   style="clip-rule:evenodd;fill-rule:evenodd;image-rendering:optimizeQuality;shape-rendering:geometricPrecision;text-rendering:geometricPrecision"
   viewBox="0 0 8267.5163 11693.014"
   id="svg2"
   inkscape:version="0.91 r"
   sodipodi:docname="pocket version.svg"><metadata
     id="metadata370"><rdf:RDF><cc:Work
         rdf:about=""><dc:format>image/svg+xml</dc:format><dc:type
           rdf:resource="http://purl.org/dc/dcmitype/StillImage" /><dc:title /></cc:Work></rdf:RDF></metadata><sodipodi:namedview
     pagecolor="#ffffff"
     bordercolor="#666666"
     borderopacity="1"
     objecttolerance="10"
     gridtolerance="10"
     guidetolerance="10"
     inkscape:pageopacity="0"
     inkscape:pageshadow="2"
     inkscape:window-width="1680"
     inkscape:window-height="998"
     id="namedview368"
     showgrid="false"
     units="mm"
     inkscape:zoom="2.5371857"
     inkscape:cx="223.84783"
     inkscape:cy="872.46383"
     inkscape:window-x="0"
     inkscape:window-y="0"
     inkscape:window-maximized="1"
     inkscape:current-layer="svg2" /><defs
     id="defs4"><style
       type="text/css"
       id="style6"><![CDATA[
    .str0 {stroke:#373435;stroke-width:6.94488}
    .str1 {stroke:#48887B;stroke-width:6.94488}
    .str2 {stroke:#373435;stroke-width:7.87402}
    .fil0 {fill:none}
    .fil3 {fill:#FEFEFE}
    .fil1 {fill:#373435;fill-rule:nonzero}
    .fil2 {fill:#373435;fill-rule:nonzero}
   ]]></style></defs><flowRoot
     xml:space="preserve"
     id="flowRoot3566"
     style="fill:black;stroke:none;stroke-opacity:1;stroke-width:1px;stroke-linejoin:miter;stroke-linecap:butt;fill-opacity:1;font-family:sans-serif;font-style:normal;font-weight:normal;font-size:40px;line-height:125%;letter-spacing:0px;word-spacing:0px"><flowRegion
       id="flowRegion3568"><rect
         id="rect3570"
         width="9.4593"
         height="90.651619"
         x="282.99072"
         y="127.71566" /></flowRegion><flowPara
       id="flowPara3572" /></flowRoot><flowRoot
     xml:space="preserve"
     id="flowRoot3596"
     style="font-style:normal;font-weight:normal;font-size:40px;line-height:125%;font-family:sans-serif;letter-spacing:0px;word-spacing:0px;fill:#000000;fill-opacity:1;stroke:none;stroke-width:1px;stroke-linecap:butt;stroke-linejoin:miter;stroke-opacity:1"
     transform="matrix(11.111207,0,0,11.111206,-0.13563485,0)"><flowRegion
       id="flowRegion3598"><rect
         id="rect3600"
         width="10.247575"
         height="74.097847"
         x="284.56726"
         y="137.17496" /></flowRegion><flowPara
       id="flowPara3602">http://fossasia.org</flowPara></flowRoot><flowRoot
     xml:space="preserve"
     id="flowRoot3604"
     style="fill:black;stroke:none;stroke-opacity:1;stroke-width:1px;stroke-linejoin:miter;stroke-linecap:butt;fill-opacity:1;font-family:sans-serif;font-style:normal;font-weight:normal;font-size:40px;line-height:125%;letter-spacing:0px;word-spacing:0px"><flowRegion
       id="flowRegion3606"><rect
         id="rect3608"
         width="12.218262"
         height="59.514759"
         x="280.23175"
         y="137.17496" /></flowRegion><flowPara
       id="flowPara3610" /></flowRoot><flowRoot
     xml:space="preserve"
     id="flowRoot3612"
     style="font-style:normal;font-weight:normal;font-size:40px;line-height:125%;font-family:sans-serif;letter-spacing:0px;word-spacing:0px;fill:#000000;fill-opacity:1;stroke:none;stroke-width:1px;stroke-linecap:butt;stroke-linejoin:miter;stroke-opacity:1"
     transform="matrix(11.111207,0,0,11.111206,-0.13563485,0)"><flowRegion
       id="flowRegion3614"><rect
         id="rect3616"
         width="13.006542"
         height="61.091309"
         x="279.04935"
         y="150.57564" /></flowRegion><flowPara
       id="flowPara3618">http://fossasia.org</flowPara></flowRoot><g
     id="g3499"><path
       style="fill:none;stroke:#373435;stroke-width:6.94488001"
       inkscape:connector-curvature="0"
       id="path11"
       d="m 1085.491,1087.6241 c 33,0 59,26 59,59 0,33 -26,59 -59,59 -33,0 -59,-26 -59,-59 0,-33 26,-59 59,-59 z"
       class="fil0 str0" /><path
       style="fill:none;stroke:#373435;stroke-width:6.94488001"
       inkscape:connector-curvature="0"
       id="path13"
       d="m 3132.491,1087.6241 c 33,0 59,26 59,59 0,33 -26,59 -59,59 -33,0 -59,-26 -59,-59 0,-33 26,-59 59,-59 z"
       class="fil0 str0" /><path
       style="fill:none;stroke:#373435;stroke-width:6.94488001"
       inkscape:connector-curvature="0"
       id="path15"
       d="m 1085.491,3725.6241 c 33,0 59,26 59,59 0,33 -26,59 -59,59 -33,0 -59,-26 -59,-59 0,-33 26,-59 59,-59 z"
       class="fil0 str0" /><path
       style="fill:none;stroke:#373435;stroke-width:6.94488001"
       inkscape:connector-curvature="0"
       id="path17"
       d="m 3132.491,3725.6241 c 33,0 59,26 59,59 0,33 -26,59 -59,59 -33,0 -59,-26 -59,-59 0,-33 26,-59 59,-59 z"
       class="fil0 str0" /><polygon
       transform="translate(-10107.509,-8918.3759)"
       style="fill:none;stroke:#373435;stroke-width:6.94488001"
       id="polygon19"
       points="11094,10628 11204,10628 11204,11675 11094,11675 "
       class="fil0 str0" /><polygon
       transform="translate(-10107.509,-8918.3759)"
       style="fill:none;stroke:#373435;stroke-width:6.94488001"
       id="polygon21"
       points="12437,11211 12885,11211 12885,11321 12437,11321 "
       class="fil0 str0" /><polygon
       transform="translate(-10107.509,-8918.3759)"
       style="fill:none;stroke:#373435;stroke-width:6.94488001"
       id="polygon23"
       points="13220,11615 13330,11615 13330,12263 13220,12263 "
       class="fil0 str0" /><path
       style="fill:none;stroke:#373435;stroke-width:6.94488001"
       inkscape:connector-curvature="0"
       id="path25"
       d="m 1596.491,1028.6241 c 33,0 59,26 59,59 0,33 -26,59 -59,59 -33,0 -59,-26 -59,-59 0,-33 26,-59 59,-59 z"
       class="fil0 str0" /><polygon
       transform="translate(-10107.509,-8918.3759)"
       style="fill:none;stroke:#373435;stroke-width:6.94488001"
       id="polygon27"
       points="11359,12734 12206,12734 12206,12836 11359,12836 "
       class="fil0 str0" /><polygon
       transform="translate(-10107.509,-8918.3759)"
       style="fill:none;stroke:#373435;stroke-width:6.94488001"
       id="polygon29"
       points="12259,12734 13106,12734 13106,12836 12259,12836 "
       class="fil0 str0" /><path
       style="fill:none;stroke:#373435;stroke-width:6.94488001"
       inkscape:connector-curvature="0"
       id="path31"
       d="m 3350.491,2749.6241 0,0 -3,1135 c 0,65 -53,118 -118,118 l -2244,0 c -65,0 -118,-53 -118,-118 l 0,-2835 c 0,-65 53,-118 118,-118 l 2366,0"
       class="fil0 str0" /><rect
       style="fill:none;stroke:#48887b;stroke-width:6.94488001"
       id="rect33"
       height="1181"
       width="177"
       y="1326.6241"
       x="3522.2686"
       class="fil0 str1" /><path
       style="fill:none;stroke:#373435;stroke-width:6.94488001"
       inkscape:connector-curvature="0"
       id="path37"
       d="m 3347.491,931.6241 59,0 c 65,0 118,53 118,118 l 0,752 0,24 -10,10 m -2,165 12,14 0,570"
       class="fil0 str0" /><line
       style="fill:none;stroke:#373435;stroke-width:6.94488001"
       id="line39"
       y2="2749.624"
       x2="3350.491"
       y1="2585.624"
       x1="3524.491"
       class="fil0 str0" /><polygon
       transform="translate(-10107.509,-8918.3759)"
       class="fil1"
       points="12610,11378 12610,11447 12600,11447 12600,11378 "
       id="polygon59"
       style="fill:#373435;fill-rule:nonzero" /><path
       id="path61"
       class="fil1"
       d="m 2559.491,2520.6241 0,8 -46,0 c 0,-2 0,-4 1,-6 1,-3 3,-6 6,-9 3,-3 6,-7 11,-11 8,-6 13,-11 15,-15 3,-4 4,-7 4,-10 0,-3 -1,-6 -4,-9 -2,-2 -6,-3 -10,-3 -4,0 -7,1 -10,4 -2,2 -4,6 -4,10 l -9,-1 c 1,-7 3,-12 7,-15 4,-3 9,-5 16,-5 7,0 12,2 16,6 4,4 6,8 6,14 0,3 -1,6 -2,8 -1,3 -3,6 -6,9 -3,3 -7,7 -13,12 -5,4 -8,7 -10,9 -1,2 -3,3 -4,5 l 34,0 z"
       inkscape:connector-curvature="0"
       style="fill:#373435;fill-rule:nonzero" /><path
       id="path63"
       class="fil1"
       d="m 2622.491,2504.6241 9,2 c -2,8 -5,13 -10,17 -5,4 -11,6 -18,6 -7,0 -14,-2 -18,-5 -5,-3 -8,-7 -11,-13 -2,-6 -4,-12 -4,-19 0,-7 1,-14 4,-19 3,-5 7,-9 12,-12 5,-3 11,-4 17,-4 7,0 13,2 18,5 5,4 8,9 10,15 l -9,2 c -2,-5 -4,-9 -7,-11 -3,-2 -7,-3 -12,-3 -5,0 -10,1 -13,4 -4,3 -6,6 -8,10 -1,4 -2,9 -2,13 0,6 1,11 3,15 2,4 4,8 8,10 4,2 8,3 12,3 5,0 9,-1 13,-4 4,-3 6,-7 7,-13 z"
       inkscape:connector-curvature="0"
       style="fill:#373435;fill-rule:nonzero" /><path
       class="fil1"
       d="m 1164.491,1779.6241 0,-7 25,0 0,22 c -4,3 -8,5 -12,7 -4,2 -8,2 -13,2 -6,0 -11,-1 -16,-4 -5,-3 -8,-6 -11,-11 -2,-5 -4,-10 -4,-16 0,-6 1,-11 4,-16 2,-5 6,-9 10,-11 5,-2 10,-4 16,-4 4,0 8,1 12,2 3,1 6,3 8,6 2,3 3,6 5,10 l -7,2 c -1,-3 -2,-5 -3,-7 -1,-2 -3,-3 -6,-4 -2,-1 -5,-2 -8,-2 -4,0 -7,1 -9,2 -3,1 -5,3 -6,4 -2,2 -3,4 -4,6 -2,4 -2,8 -2,12 0,5 1,10 3,13 2,4 5,6 8,8 4,2 7,3 11,3 3,0 7,-1 10,-2 3,-1 6,-3 7,-4 l 0,-11 -18,0 z"
       id="path65"
       inkscape:connector-curvature="0"
       style="fill:#000000;fill-rule:nonzero" /><polygon
       transform="translate(-10107.509,-8918.3759)"
       id="polygon67"
       class="fil1"
       points="11356,10722 11348,10722 11316,10675 11316,10722 11309,10722 11309,10662 11317,10662 11348,10709 11348,10662 11356,10662 "
       style="fill:#000000;fill-rule:nonzero" /><path
       id="path69"
       class="fil1"
       d="m 1261.491,1803.6241 0,-60 21,0 c 5,0 8,0 11,1 3,1 6,2 9,4 3,3 6,6 7,10 2,4 2,9 2,14 0,5 -1,9 -2,12 -1,4 -2,6 -4,9 -2,2 -3,4 -5,5 -2,1 -4,2 -7,3 -3,1 -6,1 -10,1 l -22,0 z m 8,-7 13,0 c 4,0 7,0 9,-1 2,-1 4,-2 5,-3 2,-2 3,-4 4,-8 1,-3 2,-7 2,-12 0,-6 -1,-11 -3,-14 -2,-3 -5,-6 -7,-7 -2,-1 -6,-1 -10,-1 l -13,0 0,46 z"
       inkscape:connector-curvature="0"
       style="fill:#000000;fill-rule:nonzero" /><path
       id="path71"
       class="fil1"
       d="m 1134.491,1886.6241 7,-1 c 0,3 1,5 2,7 1,2 3,3 6,5 3,1 6,2 9,2 3,0 6,0 8,-1 2,-1 4,-2 5,-4 1,-2 2,-3 2,-5 0,-2 -1,-3 -2,-5 -1,-1 -3,-3 -5,-4 -2,-1 -5,-2 -11,-3 -5,-1 -9,-3 -12,-4 -3,-2 -5,-3 -6,-6 -1,-2 -2,-5 -2,-7 0,-3 1,-6 3,-8 2,-3 4,-5 7,-6 3,-1 7,-2 11,-2 4,0 8,1 12,2 3,1 6,4 8,6 2,3 3,6 3,9 l -8,1 c 0,-4 -2,-7 -4,-9 -2,-2 -6,-3 -10,-3 -5,0 -8,1 -10,3 -2,2 -3,4 -3,6 0,2 1,4 2,5 2,1 5,3 12,4 6,1 11,3 13,4 3,2 6,4 8,6 2,2 2,5 2,8 0,3 -1,6 -3,9 -2,3 -4,5 -8,7 -3,2 -7,2 -11,2 -5,0 -10,-1 -14,-2 -4,-2 -7,-4 -9,-7 -2,-3 -3,-7 -3,-11 z"
       inkscape:connector-curvature="0"
       style="fill:#000000;fill-rule:nonzero" /><path
       id="path73"
       class="fil1"
       d="m 1237.491,1899.6241 c 4,3 7,4 10,6 l -2,6 c -4,-2 -9,-4 -13,-7 -4,2 -9,4 -15,4 -5,0 -10,-1 -15,-4 -4,-3 -8,-6 -10,-11 -2,-5 -4,-10 -4,-16 0,-6 1,-11 4,-16 2,-5 6,-8 10,-11 4,-3 9,-4 15,-4 6,0 10,1 15,4 4,3 8,6 10,11 2,5 3,10 3,16 0,5 -1,9 -2,13 -1,4 -4,7 -7,10 z m -17,-10 c 5,1 8,3 11,6 5,-4 7,-11 7,-19 0,-5 -1,-9 -2,-13 -2,-4 -4,-6 -7,-8 -3,-2 -7,-3 -11,-3 -6,0 -11,2 -15,6 -4,4 -6,10 -6,18 0,8 2,14 6,18 4,4 9,6 15,6 3,0 5,-1 8,-2 -2,-2 -5,-3 -8,-3 l 2,-6 z"
       inkscape:connector-curvature="0"
       style="fill:#000000;fill-rule:nonzero" /><path
       id="path75"
       class="fil1"
       d="m 1257.491,1905.6241 0,-60 26,0 c 5,0 9,1 12,2 3,1 5,3 7,6 2,3 2,6 2,9 0,4 -1,8 -4,11 -3,3 -7,5 -13,6 2,1 4,2 5,3 2,2 4,5 7,8 l 10,16 -10,0 -8,-12 c -2,-4 -4,-6 -6,-8 -2,-2 -3,-3 -4,-4 -1,-1 -2,-1 -4,-2 -1,0 -2,0 -4,0 l -9,0 0,27 -8,0 z m 8,-33 17,0 c 4,0 6,0 8,-1 2,-1 4,-2 5,-4 1,-2 2,-3 2,-5 0,-3 -1,-5 -3,-7 -2,-2 -5,-3 -10,-3 l -19,0 0,20 z"
       inkscape:connector-curvature="0"
       style="fill:#000000;fill-rule:nonzero" /><path
       id="path77"
       class="fil1"
       d="m 1341.491,1905.6241 -7,0 0,-47 c -2,2 -4,3 -7,5 -3,2 -5,3 -8,4 l 0,-7 c 4,-2 8,-4 11,-7 3,-3 5,-5 7,-8 l 5,0 0,60 z"
       inkscape:connector-curvature="0"
       style="fill:#000000;fill-rule:nonzero" /><path
       id="path79"
       class="fil1"
       d="m 1134.491,1989.6241 7,-1 c 0,3 1,5 2,7 1,2 3,3 6,5 3,1 6,2 9,2 3,0 6,0 8,-1 2,-1 4,-2 5,-4 1,-2 2,-3 2,-5 0,-2 -1,-3 -2,-5 -1,-1 -3,-3 -5,-4 -2,-1 -5,-2 -11,-3 -5,-1 -9,-3 -12,-4 -3,-2 -5,-3 -6,-6 -1,-2 -2,-5 -2,-7 0,-3 1,-6 3,-8 2,-3 4,-5 7,-6 3,-1 7,-2 11,-2 4,0 8,1 12,2 3,1 6,4 8,6 2,3 3,6 3,9 l -8,1 c 0,-4 -2,-7 -4,-9 -2,-2 -6,-3 -10,-3 -5,0 -8,1 -10,3 -2,2 -3,4 -3,6 0,2 1,4 2,5 2,1 5,3 12,4 6,1 11,3 13,4 3,2 6,4 8,6 2,2 2,5 2,8 0,3 -1,6 -3,9 -2,3 -4,5 -8,7 -3,2 -7,2 -11,2 -5,0 -10,-1 -14,-2 -4,-2 -7,-4 -9,-7 -2,-3 -3,-7 -3,-11 z"
       inkscape:connector-curvature="0"
       style="fill:#000000;fill-rule:nonzero" /><path
       id="path81"
       class="fil1"
       d="m 1237.491,2001.6241 c 4,3 7,4 10,6 l -2,6 c -4,-2 -9,-4 -13,-7 -4,2 -9,4 -15,4 -5,0 -10,-1 -15,-4 -4,-3 -8,-6 -10,-11 -2,-5 -4,-10 -4,-16 0,-6 1,-11 4,-16 2,-5 6,-8 10,-11 4,-3 9,-4 15,-4 6,0 10,1 15,4 4,3 8,6 10,11 2,5 3,10 3,16 0,5 -1,9 -2,13 -1,4 -4,7 -7,10 z m -17,-10 c 5,1 8,3 11,6 5,-4 7,-11 7,-19 0,-5 -1,-9 -2,-13 -2,-4 -4,-6 -7,-8 -3,-2 -7,-3 -11,-3 -6,0 -11,2 -15,6 -4,4 -6,10 -6,18 0,8 2,14 6,18 4,4 9,6 15,6 3,0 5,-1 8,-2 -2,-2 -5,-3 -8,-3 l 2,-6 z"
       inkscape:connector-curvature="0"
       style="fill:#000000;fill-rule:nonzero" /><path
       id="path83"
       class="fil1"
       d="m 1257.491,2008.6241 0,-60 26,0 c 5,0 9,1 12,2 3,1 5,3 7,6 2,3 2,6 2,9 0,4 -1,8 -4,11 -3,3 -7,5 -13,6 2,1 4,2 5,3 2,2 4,5 7,8 l 10,16 -10,0 -8,-12 c -2,-4 -4,-6 -6,-8 -2,-2 -3,-3 -4,-4 -1,-1 -2,-1 -4,-2 -1,0 -2,0 -4,0 l -9,0 0,27 -8,0 z m 8,-33 17,0 c 4,0 6,0 8,-1 2,-1 4,-2 5,-4 1,-2 2,-3 2,-5 0,-3 -1,-5 -3,-7 -2,-2 -5,-3 -10,-3 l -19,0 0,20 z"
       inkscape:connector-curvature="0"
       style="fill:#000000;fill-rule:nonzero" /><path
       id="path85"
       class="fil1"
       d="m 1352.491,2001.6241 0,7 -40,0 c 0,-2 0,-3 1,-5 1,-3 3,-5 5,-8 2,-3 5,-6 10,-9 6,-5 11,-10 13,-13 2,-3 3,-6 3,-9 0,-3 -1,-5 -3,-7 -2,-2 -5,-3 -8,-3 -4,0 -6,1 -9,3 -2,2 -3,5 -3,9 l -8,-1 c 1,-6 2,-10 6,-13 3,-3 8,-4 14,-4 6,0 10,2 14,5 3,3 5,7 5,12 0,2 0,5 -1,7 -1,2 -3,5 -5,7 -2,3 -6,6 -11,11 -4,4 -7,6 -8,8 -1,1 -2,3 -3,4 l 29,0 z"
       inkscape:connector-curvature="0"
       style="fill:#000000;fill-rule:nonzero" /><path
       id="path87"
       class="fil1"
       d="m 1134.491,2091.6241 7,-1 c 0,3 1,5 2,7 1,2 3,3 6,5 3,1 6,2 9,2 3,0 6,0 8,-1 2,-1 4,-2 5,-4 1,-2 2,-3 2,-5 0,-2 -1,-3 -2,-5 -1,-1 -3,-3 -5,-4 -2,-1 -5,-2 -11,-3 -5,-1 -9,-3 -12,-4 -3,-2 -5,-3 -6,-6 -1,-2 -2,-5 -2,-7 0,-3 1,-6 3,-8 2,-3 4,-5 7,-6 3,-1 7,-2 11,-2 4,0 8,1 12,2 3,1 6,4 8,6 2,3 3,6 3,9 l -8,1 c 0,-4 -2,-7 -4,-9 -2,-2 -6,-3 -10,-3 -5,0 -8,1 -10,3 -2,2 -3,4 -3,6 0,2 1,4 2,5 2,1 5,3 12,4 6,1 11,3 13,4 3,2 6,4 8,6 2,2 2,5 2,8 0,3 -1,6 -3,9 -2,3 -4,5 -8,7 -3,2 -7,2 -11,2 -5,0 -10,-1 -14,-2 -4,-2 -7,-4 -9,-7 -2,-3 -3,-7 -3,-11 z"
       inkscape:connector-curvature="0"
       style="fill:#000000;fill-rule:nonzero" /><path
       id="path89"
       class="fil1"
       d="m 1237.491,2104.6241 c 4,3 7,4 10,6 l -2,6 c -4,-2 -9,-4 -13,-7 -4,2 -9,4 -15,4 -5,0 -10,-1 -15,-4 -4,-3 -8,-6 -10,-11 -2,-5 -4,-10 -4,-16 0,-6 1,-11 4,-16 2,-5 6,-8 10,-11 4,-3 9,-4 15,-4 6,0 10,1 15,4 4,3 8,6 10,11 2,5 3,10 3,16 0,5 -1,9 -2,13 -1,4 -4,7 -7,10 z m -17,-10 c 5,1 8,3 11,6 5,-4 7,-11 7,-19 0,-5 -1,-9 -2,-13 -2,-4 -4,-6 -7,-8 -3,-2 -7,-3 -11,-3 -6,0 -11,2 -15,6 -4,4 -6,10 -6,18 0,8 2,14 6,18 4,4 9,6 15,6 3,0 5,-1 8,-2 -2,-2 -5,-3 -8,-3 l 2,-6 z"
       inkscape:connector-curvature="0"
       style="fill:#000000;fill-rule:nonzero" /><path
       id="path91"
       class="fil1"
       d="m 1257.491,2110.6241 0,-60 26,0 c 5,0 9,1 12,2 3,1 5,3 7,6 2,3 2,6 2,9 0,4 -1,8 -4,11 -3,3 -7,5 -13,6 2,1 4,2 5,3 2,2 4,5 7,8 l 10,16 -10,0 -8,-12 c -2,-4 -4,-6 -6,-8 -2,-2 -3,-3 -4,-4 -1,-1 -2,-1 -4,-2 -1,0 -2,0 -4,0 l -9,0 0,27 -8,0 z m 8,-33 17,0 c 4,0 6,0 8,-1 2,-1 4,-2 5,-4 1,-2 2,-3 2,-5 0,-3 -1,-5 -3,-7 -2,-2 -5,-3 -10,-3 l -19,0 0,20 z"
       inkscape:connector-curvature="0"
       style="fill:#000000;fill-rule:nonzero" /><path
       id="path93"
       class="fil1"
       d="m 1314.491,2094.6241 7,-1 c 1,4 2,7 4,9 2,2 4,3 7,3 3,0 6,-1 9,-4 2,-2 4,-5 4,-9 0,-3 -1,-6 -3,-8 -2,-2 -5,-3 -8,-3 -1,0 -3,0 -5,1 l 1,-6 c 0,0 1,0 1,0 3,0 6,-1 8,-2 3,-2 4,-4 4,-8 0,-3 -1,-5 -3,-7 -2,-2 -4,-3 -7,-3 -3,0 -5,1 -7,3 -2,2 -3,5 -4,8 l -7,-1 c 1,-5 3,-9 6,-11 3,-3 7,-4 12,-4 3,0 6,1 9,2 3,1 5,3 6,6 1,2 2,5 2,8 0,3 -1,5 -2,7 -1,2 -3,4 -6,5 4,1 6,3 8,5 2,3 3,6 3,10 0,5 -2,10 -6,13 -4,4 -9,5 -14,5 -5,0 -10,-2 -13,-5 -3,-3 -5,-7 -6,-12 z"
       inkscape:connector-curvature="0"
       style="fill:#000000;fill-rule:nonzero" /><path
       id="path95"
       class="fil1"
       d="m 1134.491,2193.6241 7,-1 c 0,3 1,5 2,7 1,2 3,3 6,5 3,1 6,2 9,2 3,0 6,0 8,-1 2,-1 4,-2 5,-4 1,-2 2,-3 2,-5 0,-2 -1,-3 -2,-5 -1,-1 -3,-3 -5,-4 -2,-1 -5,-2 -11,-3 -5,-1 -9,-3 -12,-4 -3,-2 -5,-3 -6,-6 -1,-2 -2,-5 -2,-7 0,-3 1,-6 3,-8 2,-3 4,-5 7,-6 3,-1 7,-2 11,-2 4,0 8,1 12,2 3,1 6,4 8,6 2,3 3,6 3,9 l -8,1 c 0,-4 -2,-7 -4,-9 -2,-2 -6,-3 -10,-3 -5,0 -8,1 -10,3 -2,2 -3,4 -3,6 0,2 1,4 2,5 2,1 5,3 12,4 6,1 11,3 13,4 3,2 6,4 8,6 2,2 2,5 2,8 0,3 -1,6 -3,9 -2,3 -4,5 -8,7 -3,2 -7,2 -11,2 -5,0 -10,-1 -14,-2 -4,-2 -7,-4 -9,-7 -2,-3 -3,-7 -3,-11 z"
       inkscape:connector-curvature="0"
       style="fill:#000000;fill-rule:nonzero" /><path
       id="path97"
       class="fil1"
       d="m 1237.491,2206.6241 c 4,3 7,4 10,6 l -2,6 c -4,-2 -9,-4 -13,-7 -4,2 -9,4 -15,4 -5,0 -10,-1 -15,-4 -4,-3 -8,-6 -10,-11 -2,-5 -4,-10 -4,-16 0,-6 1,-11 4,-16 2,-5 6,-8 10,-11 4,-3 9,-4 15,-4 6,0 10,1 15,4 4,3 8,6 10,11 2,5 3,10 3,16 0,5 -1,9 -2,13 -1,4 -4,7 -7,10 z m -17,-10 c 5,1 8,3 11,6 5,-4 7,-11 7,-19 0,-5 -1,-9 -2,-13 -2,-4 -4,-6 -7,-8 -3,-2 -7,-3 -11,-3 -6,0 -11,2 -15,6 -4,4 -6,10 -6,18 0,8 2,14 6,18 4,4 9,6 15,6 3,0 5,-1 8,-2 -2,-2 -5,-3 -8,-3 l 2,-6 z"
       inkscape:connector-curvature="0"
       style="fill:#000000;fill-rule:nonzero" /><path
       id="17"
       class="fil1"
       d="m 1257.491,2212.6241 0,-60 26,0 c 5,0 9,1 12,2 3,1 5,3 7,6 2,3 2,6 2,9 0,4 -1,8 -4,11 -3,3 -7,5 -13,6 2,1 4,2 5,3 2,2 4,5 7,8 l 10,16 -10,0 -8,-12 c -2,-4 -4,-6 -6,-8 -2,-2 -3,-3 -4,-4 -1,-1 -2,-1 -4,-2 -1,0 -2,0 -4,0 l -9,0 0,27 -8,0 z m 8,-33 17,0 c 4,0 6,0 8,-1 2,-1 4,-2 5,-4 1,-2 2,-3 2,-5 0,-3 -1,-5 -3,-7 -2,-2 -5,-3 -10,-3 l -19,0 0,20 z"
       inkscape:connector-curvature="0"
       style="fill:#000000;fill-rule:nonzero" /><path
       id="18"
       class="fil1"
       d="m 1337.491,2212.6241 0,-14 -26,0 0,-7 27,-39 6,0 0,39 8,0 0,7 -8,0 0,14 -7,0 z m 0,-21 0,-27 -19,27 19,0 z"
       inkscape:connector-curvature="0"
       style="fill:#000000;fill-rule:nonzero" /><path
       id="19"
       class="fil1"
       d="m 1179.491,2294.6241 8,2 c -2,6 -5,11 -9,15 -4,3 -10,5 -16,5 -6,0 -12,-1 -16,-4 -4,-3 -7,-6 -9,-11 -2,-5 -3,-10 -3,-16 0,-6 1,-12 4,-16 2,-5 6,-8 10,-11 4,-2 9,-4 14,-4 6,0 11,2 15,5 4,3 7,7 9,13 l -8,2 c -1,-4 -3,-8 -6,-9 -3,-2 -6,-3 -10,-3 -5,0 -8,1 -11,3 -3,2 -5,5 -6,9 -1,4 -2,8 -2,11 0,5 1,10 2,13 1,4 4,7 7,8 3,2 6,3 10,3 4,0 8,-1 11,-4 3,-3 5,-6 6,-11 z"
       inkscape:connector-curvature="0"
       style="fill:#000000;fill-rule:nonzero" /><polygon
       transform="translate(-10107.509,-8918.3759)"
       id="20"
       class="fil1"
       points="11351,11234 11343,11234 11312,11187 11312,11234 11304,11234 11304,11174 11312,11174 11344,11221 11344,11174 11351,11174 "
       style="fill:#000000;fill-rule:nonzero" /><polygon
       transform="translate(-10107.509,-8918.3759)"
       id="21"
       class="fil1"
       points="11388,11181 11388,11234 11380,11234 11380,11181 11360,11181 11360,11174 11407,11174 11407,11181 "
       style="fill:#000000;fill-rule:nonzero" /><path
       id="22"
       class="fil1"
       d="m 1308.491,2315.6241 0,-60 26,0 c 5,0 9,1 12,2 3,1 5,3 7,6 2,3 2,6 2,9 0,4 -1,8 -4,11 -3,3 -7,5 -13,6 2,1 4,2 5,3 2,2 4,5 7,8 l 10,16 -10,0 -8,-12 c -2,-4 -4,-6 -6,-8 -2,-2 -3,-3 -4,-4 -1,-1 -2,-1 -4,-2 -1,0 -2,0 -4,0 l -9,0 0,27 -8,0 z m 8,-33 17,0 c 4,0 6,0 8,-1 2,-1 4,-2 5,-4 1,-2 2,-3 2,-5 0,-3 -1,-5 -3,-7 -2,-2 -5,-3 -10,-3 l -19,0 0,20 z"
       inkscape:connector-curvature="0"
       style="fill:#000000;fill-rule:nonzero" /><polygon
       transform="translate(-10107.509,-8918.3759)"
       id="23"
       class="fil1"
       points="11253,11277 11253,11336 11245,11336 11245,11277 "
       style="fill:#000000;fill-rule:nonzero" /><path
       id="24"
       class="fil1"
       d="m 1159.491,2417.6241 0,-60 21,0 c 5,0 8,0 11,1 3,1 6,2 9,4 3,3 6,6 7,10 2,4 2,9 2,14 0,5 -1,9 -2,12 -1,4 -2,6 -4,9 -2,2 -3,4 -5,5 -2,1 -4,2 -7,3 -3,1 -6,1 -10,1 l -22,0 z m 8,-7 13,0 c 4,0 7,0 9,-1 2,-1 4,-2 5,-3 2,-2 3,-4 4,-8 1,-3 2,-7 2,-12 0,-6 -1,-11 -3,-14 -2,-3 -5,-6 -7,-7 -2,-1 -6,-1 -10,-1 l -13,0 0,46 z"
       inkscape:connector-curvature="0"
       style="fill:#000000;fill-rule:nonzero" /><path
       id="25"
       class="fil1"
       d="m 1244.491,2417.6241 -7,0 0,-47 c -2,2 -4,3 -7,5 -3,2 -5,3 -8,4 l 0,-7 c 4,-2 8,-4 11,-7 3,-3 5,-5 7,-8 l 5,0 0,60 z"
       inkscape:connector-curvature="0"
       style="fill:#000000;fill-rule:nonzero" /><polygon
       transform="translate(-10107.509,-8918.3759)"
       id="26"
       class="fil1"
       points="11253,11379 11253,11439 11245,11439 11245,11379 "
       style="fill:#000000;fill-rule:nonzero" /><path
       id="27"
       class="fil1"
       d="m 1159.491,2520.6241 0,-60 21,0 c 5,0 8,0 11,1 3,1 6,2 9,4 3,3 6,6 7,10 2,4 2,9 2,14 0,5 -1,9 -2,12 -1,4 -2,6 -4,9 -2,2 -3,4 -5,5 -2,1 -4,2 -7,3 -3,1 -6,1 -10,1 l -22,0 z m 8,-7 13,0 c 4,0 7,0 9,-1 2,-1 4,-2 5,-3 2,-2 3,-4 4,-8 1,-3 2,-7 2,-12 0,-6 -1,-11 -3,-14 -2,-3 -5,-6 -7,-7 -2,-1 -6,-1 -10,-1 l -13,0 0,46 z"
       inkscape:connector-curvature="0"
       style="fill:#000000;fill-rule:nonzero" /><path
       id="28"
       class="fil1"
       d="m 1255.491,2513.6241 0,7 -40,0 c 0,-2 0,-3 1,-5 1,-3 3,-5 5,-8 2,-3 5,-6 10,-9 6,-5 11,-10 13,-13 2,-3 3,-6 3,-9 0,-3 -1,-5 -3,-7 -2,-2 -5,-3 -8,-3 -4,0 -6,1 -9,3 -2,2 -3,5 -3,9 l -8,-1 c 1,-6 2,-10 6,-13 3,-3 8,-4 14,-4 6,0 10,2 14,5 3,3 5,7 5,12 0,2 0,5 -1,7 -1,2 -3,5 -5,7 -2,3 -6,6 -11,11 -4,4 -7,6 -8,8 -1,1 -2,3 -3,4 l 29,0 z"
       inkscape:connector-curvature="0"
       style="fill:#000000;fill-rule:nonzero" /><polygon
       transform="translate(-10107.509,-8918.3759)"
       id="29"
       class="fil1"
       points="11253,11481 11253,11541 11245,11541 11245,11481 "
       style="fill:#000000;fill-rule:nonzero" /><path
       id="30"
       class="fil1"
       d="m 1159.491,2622.6241 0,-60 21,0 c 5,0 8,0 11,1 3,1 6,2 9,4 3,3 6,6 7,10 2,4 2,9 2,14 0,5 -1,9 -2,12 -1,4 -2,6 -4,9 -2,2 -3,4 -5,5 -2,1 -4,2 -7,3 -3,1 -6,1 -10,1 l -22,0 z m 8,-7 13,0 c 4,0 7,0 9,-1 2,-1 4,-2 5,-3 2,-2 3,-4 4,-8 1,-3 2,-7 2,-12 0,-6 -1,-11 -3,-14 -2,-3 -5,-6 -7,-7 -2,-1 -6,-1 -10,-1 l -13,0 0,46 z"
       inkscape:connector-curvature="0"
       style="fill:#000000;fill-rule:nonzero" /><path
       id="31"
       class="fil1"
       d="m 1217.491,2606.6241 7,-1 c 1,4 2,7 4,9 2,2 4,3 7,3 3,0 6,-1 9,-4 2,-2 4,-5 4,-9 0,-3 -1,-6 -3,-8 -2,-2 -5,-3 -8,-3 -1,0 -3,0 -5,1 l 1,-6 c 0,0 1,0 1,0 3,0 6,-1 8,-2 3,-2 4,-4 4,-8 0,-3 -1,-5 -3,-7 -2,-2 -4,-3 -7,-3 -3,0 -5,1 -7,3 -2,2 -3,5 -4,8 l -7,-1 c 1,-5 3,-9 6,-11 3,-3 7,-4 12,-4 3,0 6,1 9,2 3,1 5,3 6,6 1,2 2,5 2,8 0,3 -1,5 -2,7 -1,2 -3,4 -6,5 4,1 6,3 8,5 2,3 3,6 3,10 0,5 -2,10 -6,13 -4,4 -9,5 -14,5 -5,0 -10,-2 -13,-5 -3,-3 -5,-7 -6,-12 z"
       inkscape:connector-curvature="0"
       style="fill:#000000;fill-rule:nonzero" /><polygon
       transform="translate(-10107.509,-8918.3759)"
       id="32"
       class="fil1"
       points="11253,11584 11253,11644 11245,11644 11245,11584 "
       style="fill:#000000;fill-rule:nonzero" /><path
       id="33"
       class="fil1"
       d="m 1159.491,2725.6241 0,-60 21,0 c 5,0 8,0 11,1 3,1 6,2 9,4 3,3 6,6 7,10 2,4 2,9 2,14 0,5 -1,9 -2,12 -1,4 -2,6 -4,9 -2,2 -3,4 -5,5 -2,1 -4,2 -7,3 -3,1 -6,1 -10,1 l -22,0 z m 8,-7 13,0 c 4,0 7,0 9,-1 2,-1 4,-2 5,-3 2,-2 3,-4 4,-8 1,-3 2,-7 2,-12 0,-6 -1,-11 -3,-14 -2,-3 -5,-6 -7,-7 -2,-1 -6,-1 -10,-1 l -13,0 0,46 z"
       inkscape:connector-curvature="0"
       style="fill:#000000;fill-rule:nonzero" /><path
       id="34"
       class="fil1"
       d="m 1240.491,2725.6241 0,-14 -26,0 0,-7 27,-39 6,0 0,39 8,0 0,7 -8,0 0,14 -7,0 z m 0,-21 0,-27 -19,27 19,0 z"
       inkscape:connector-curvature="0"
       style="fill:#000000;fill-rule:nonzero" /><path
       class="fil1"
       d="m 2415.491,2245.6241 -1,-7 c 4,-1 7,-2 9,-4 2,-2 3,-4 3,-7 0,-3 -1,-6 -4,-9 -2,-2 -5,-4 -9,-4 -3,0 -6,1 -8,3 -2,2 -3,5 -3,8 0,1 0,3 1,5 l -6,-1 c 0,0 0,-1 0,-1 0,-3 -1,-6 -2,-8 -2,-3 -4,-4 -8,-4 -3,0 -5,1 -7,3 -2,2 -3,4 -3,7 0,3 1,5 3,7 2,2 5,3 8,4 l -1,7 c -5,-1 -9,-3 -11,-6 -3,-3 -4,-7 -4,-12 0,-3 1,-6 2,-9 1,-3 3,-5 6,-6 2,-1 5,-2 8,-2 3,0 5,1 7,2 2,1 4,3 5,6 1,-4 3,-6 5,-8 3,-2 6,-3 10,-3 5,0 10,2 13,6 4,4 5,9 5,14 0,5 -2,10 -5,13 -3,3 -7,5 -12,6 z"
       id="path117"
       inkscape:connector-curvature="0"
       style="fill:#000000;fill-rule:nonzero;stroke:#000000" /><polygon
       transform="translate(-10107.509,-8918.3759)"
       id="polygon119"
       class="fil1"
       points="12530,11105 12539,11105 12539,11113 12530,11113 "
       style="fill:#000000;fill-rule:nonzero;stroke:#000000" /><path
       id="path121"
       class="fil1"
       d="m 2415.491,2175.6241 -1,-7 c 4,-1 7,-2 9,-4 2,-2 3,-4 3,-7 0,-3 -1,-6 -4,-9 -2,-2 -5,-4 -9,-4 -3,0 -6,1 -8,3 -2,2 -3,5 -3,8 0,1 0,3 1,5 l -6,-1 c 0,0 0,-1 0,-1 0,-3 -1,-6 -2,-8 -2,-3 -4,-4 -8,-4 -3,0 -5,1 -7,3 -2,2 -3,4 -3,7 0,3 1,5 3,7 2,2 5,3 8,4 l -1,7 c -5,-1 -9,-3 -11,-6 -3,-3 -4,-7 -4,-12 0,-3 1,-6 2,-9 1,-3 3,-5 6,-6 2,-1 5,-2 8,-2 3,0 5,1 7,2 2,1 4,3 5,6 1,-4 3,-6 5,-8 3,-2 6,-3 10,-3 5,0 10,2 13,6 4,4 5,9 5,14 0,5 -2,10 -5,13 -3,3 -7,5 -12,6 z"
       inkscape:connector-curvature="0"
       style="fill:#000000;fill-rule:nonzero;stroke:#000000" /><path
       id="path123"
       class="fil1"
       d="m 2431.491,2109.6241 -60,23 0,-9 43,-16 c 3,-1 7,-2 10,-3 -3,-1 -7,-2 -10,-3 l -43,-16 0,-8 60,23 0,8 z"
       inkscape:connector-curvature="0"
       style="fill:#000000;fill-rule:nonzero;stroke:#000000" /><path
       id="path125"
       class="fil1"
       d="m 2510.491,2214.6241 -7,0 0,-25 22,0 c 3,4 5,8 7,12 2,4 2,8 2,13 0,6 -1,11 -4,16 -3,5 -6,8 -11,11 -5,2 -10,4 -16,4 -6,0 -11,-1 -16,-4 -5,-2 -9,-6 -11,-10 -2,-5 -4,-10 -4,-16 0,-4 1,-8 2,-12 1,-3 3,-6 6,-8 2,-2 6,-3 10,-5 l 2,7 c -3,1 -5,2 -7,3 -2,1 -3,3 -4,6 -1,2 -2,5 -2,8 0,4 1,7 2,9 1,3 3,5 4,6 2,2 4,3 6,4 4,2 8,2 12,2 5,0 10,-1 13,-3 4,-2 6,-5 8,-8 2,-4 3,-7 3,-11 0,-3 -1,-7 -2,-10 -1,-3 -3,-6 -4,-7 l -11,0 0,18 z"
       inkscape:connector-curvature="0"
       style="fill:#000000;fill-rule:nonzero;stroke:#000000" /><polygon
       transform="translate(-10107.509,-8918.3759)"
       id="polygon127"
       class="fil1"
       points="12641,11049 12641,11057 12594,11088 12641,11088 12641,11096 12581,11096 12581,11088 12628,11057 12581,11057 12581,11049 "
       style="fill:#000000;fill-rule:nonzero;stroke:#000000" /><path
       id="path129"
       class="fil1"
       d="m 2533.491,2117.6241 -60,0 0,-21 c 0,-5 0,-8 1,-11 1,-3 2,-6 4,-9 3,-3 6,-6 10,-7 4,-2 9,-2 14,-2 5,0 9,1 12,2 4,1 6,2 9,4 2,2 4,3 5,5 1,2 2,4 3,7 1,3 1,6 1,10 l 0,22 z m -7,-8 0,-13 c 0,-4 0,-7 -1,-9 -1,-2 -2,-4 -3,-5 -2,-2 -4,-3 -8,-4 -3,-1 -7,-2 -12,-2 -6,0 -11,1 -14,3 -3,2 -6,5 -7,7 -1,2 -1,6 -1,10 l 0,13 46,0 z"
       inkscape:connector-curvature="0"
       style="fill:#000000;fill-rule:nonzero;stroke:#000000" /><path
       id="path131"
       class="fil1"
       d="m 2616.491,2244.6241 -1,-7 c 3,0 5,-1 7,-2 2,-1 3,-3 5,-6 1,-3 2,-6 2,-9 0,-3 0,-6 -1,-8 -1,-2 -2,-4 -4,-5 -2,-1 -3,-2 -5,-2 -2,0 -3,1 -5,2 -1,1 -3,3 -4,5 -1,2 -2,5 -3,11 -1,5 -3,9 -4,12 -2,3 -3,5 -6,6 -2,1 -5,2 -7,2 -3,0 -6,-1 -8,-3 -3,-2 -5,-4 -6,-7 -1,-3 -2,-7 -2,-11 0,-4 1,-8 2,-12 1,-3 4,-6 6,-8 3,-2 6,-3 9,-3 l 1,8 c -4,0 -7,2 -9,4 -2,2 -3,6 -3,10 0,5 1,8 3,10 2,2 4,3 6,3 2,0 4,-1 5,-2 1,-2 3,-5 4,-12 1,-6 3,-11 4,-13 2,-3 4,-6 6,-8 2,-2 5,-2 8,-2 3,0 6,1 9,3 3,2 5,4 7,8 2,3 2,7 2,11 0,5 -1,10 -2,14 -2,4 -4,7 -7,9 -3,2 -7,3 -11,3 z"
       inkscape:connector-curvature="0"
       style="fill:#000000;fill-rule:nonzero;stroke:#000000" /><path
       id="path133"
       class="fil1"
       d="m 2615.491,2144.6241 2,-8 c 6,2 11,5 15,9 3,4 5,10 5,16 0,6 -1,12 -4,16 -3,4 -6,7 -11,9 -5,2 -10,3 -16,3 -6,0 -12,-1 -16,-4 -5,-2 -8,-6 -11,-10 -2,-4 -4,-9 -4,-14 0,-6 2,-11 5,-15 3,-4 7,-7 13,-9 l 2,8 c -4,1 -8,3 -9,6 -2,3 -3,6 -3,10 0,5 1,8 3,11 2,3 5,5 9,6 4,1 8,2 11,2 5,0 10,-1 13,-2 4,-1 7,-4 8,-7 2,-3 3,-6 3,-10 0,-4 -1,-8 -4,-11 -3,-3 -6,-5 -11,-6 z"
       inkscape:connector-curvature="0"
       style="fill:#000000;fill-rule:nonzero;stroke:#000000" /><polygon
       transform="translate(-10107.509,-8918.3759)"
       id="polygon135"
       class="fil1"
       points="12743,11045 12684,11045 12684,11037 12736,11037 12736,11008 12743,11008 "
       style="fill:#000000;fill-rule:nonzero;stroke:#000000" /><path
       id="path137"
       class="fil1"
       d="m 2719.491,2244.6241 -1,-7 c 3,0 5,-1 7,-2 2,-1 3,-3 5,-6 1,-3 2,-6 2,-9 0,-3 0,-6 -1,-8 -1,-2 -2,-4 -4,-5 -2,-1 -3,-2 -5,-2 -2,0 -3,1 -5,2 -1,1 -3,3 -4,5 -1,2 -2,5 -3,11 -1,5 -3,9 -4,12 -2,3 -3,5 -6,6 -2,1 -5,2 -7,2 -3,0 -6,-1 -8,-3 -3,-2 -5,-4 -6,-7 -1,-3 -2,-7 -2,-11 0,-4 1,-8 2,-12 1,-3 4,-6 6,-8 3,-2 6,-3 9,-3 l 1,8 c -4,0 -7,2 -9,4 -2,2 -3,6 -3,10 0,5 1,8 3,10 2,2 4,3 6,3 2,0 4,-1 5,-2 1,-2 3,-5 4,-12 1,-6 3,-11 4,-13 2,-3 4,-6 6,-8 2,-2 5,-2 8,-2 3,0 6,1 9,3 3,2 5,4 7,8 2,3 2,7 2,11 0,5 -1,10 -2,14 -2,4 -4,7 -7,9 -3,2 -7,3 -11,3 z"
       inkscape:connector-curvature="0"
       style="fill:#000000;fill-rule:nonzero;stroke:#000000" /><path
       id="path139"
       class="fil1"
       d="m 2738.491,2186.6241 -60,0 0,-21 c 0,-5 0,-8 1,-11 1,-3 2,-6 4,-9 3,-3 6,-6 10,-7 4,-2 9,-2 14,-2 5,0 9,1 12,2 4,1 6,2 9,4 2,2 4,3 5,5 1,2 2,4 3,7 1,3 1,6 1,10 l 0,22 z m -7,-8 0,-13 c 0,-4 0,-7 -1,-9 -1,-2 -2,-4 -3,-5 -2,-2 -4,-3 -8,-4 -3,-1 -7,-2 -12,-2 -6,0 -11,1 -14,3 -3,2 -6,5 -7,7 -1,2 -1,6 -1,10 l 0,13 46,0 z"
       inkscape:connector-curvature="0"
       style="fill:#000000;fill-rule:nonzero;stroke:#000000" /><path
       id="path141"
       class="fil1"
       d="m 2738.491,2133.6241 -60,-23 0,-9 60,-24 0,9 -18,7 0,25 18,6 0,8 z m -25,-17 0,-20 -17,6 c -5,2 -9,3 -12,4 4,1 8,2 11,3 l 18,7 z"
       inkscape:connector-curvature="0"
       style="fill:#000000;fill-rule:nonzero;stroke:#000000" /><path
       class="fil2"
       d="m 2914.491,2769.6241 7,-1 c 0,3 1,5 2,7 1,2 3,3 6,5 3,1 6,2 9,2 3,0 6,0 8,-1 2,-1 4,-2 5,-4 1,-2 2,-3 2,-5 0,-2 -1,-3 -2,-5 -1,-1 -3,-3 -5,-4 -2,-1 -5,-2 -11,-3 -5,-1 -9,-3 -12,-4 -3,-2 -5,-3 -6,-6 -1,-2 -2,-5 -2,-7 0,-3 1,-6 3,-8 2,-3 4,-5 7,-6 3,-1 7,-2 11,-2 4,0 8,1 12,2 3,1 6,4 8,6 2,3 3,6 3,9 l -8,1 c 0,-4 -2,-7 -4,-9 -2,-2 -6,-3 -10,-3 -5,0 -8,1 -10,3 -2,2 -3,4 -3,6 0,2 1,4 2,5 2,1 5,3 12,4 6,1 11,3 13,4 3,2 6,4 8,6 2,2 2,5 2,8 0,3 -1,6 -3,9 -2,3 -4,5 -8,7 -3,2 -7,2 -11,2 -5,0 -10,-1 -14,-2 -4,-2 -7,-4 -9,-7 -2,-3 -3,-7 -3,-11 z"
       id="path143"
       inkscape:connector-curvature="0"
       style="fill:#000000;fill-rule:nonzero" /><polygon
       transform="translate(-10107.509,-8918.3759)"
       id="polygon145"
       class="fil2"
       points="13121,11672 13121,11679 13088,11679 13088,11700 13125,11700 13125,11707 13080,11707 13080,11647 13123,11647 13123,11654 13088,11654 13088,11672 "
       style="fill:#000000;fill-rule:nonzero" /><polygon
       transform="translate(-10107.509,-8918.3759)"
       id="polygon147"
       class="fil2"
       points="13182,11707 13174,11707 13143,11660 13143,11707 13135,11707 13135,11647 13144,11647 13175,11694 13175,11647 13182,11647 "
       style="fill:#000000;fill-rule:nonzero" /><path
       id="path149"
       class="fil2"
       d="m 2930.491,2867.6241 0,-7 25,0 0,22 c -4,3 -8,5 -12,7 -4,2 -8,2 -13,2 -6,0 -11,-1 -16,-4 -5,-3 -8,-6 -11,-11 -2,-5 -4,-10 -4,-16 0,-6 1,-11 4,-16 2,-5 6,-9 10,-11 5,-2 10,-4 16,-4 4,0 8,1 12,2 3,1 6,3 8,6 2,3 3,6 5,10 l -7,2 c -1,-3 -2,-5 -3,-7 -1,-2 -3,-3 -6,-4 -2,-1 -5,-2 -8,-2 -4,0 -7,1 -9,2 -3,1 -5,3 -6,4 -2,2 -3,4 -4,6 -2,4 -2,8 -2,12 0,5 1,10 3,13 2,4 5,6 8,8 4,2 7,3 11,3 3,0 7,-1 10,-2 3,-1 6,-3 7,-4 l 0,-11 -18,0 z"
       inkscape:connector-curvature="0"
       style="fill:#000000;fill-rule:nonzero" /><polygon
       transform="translate(-10107.509,-8918.3759)"
       id="polygon151"
       class="fil2"
       points="13122,11809 13114,11809 13083,11762 13083,11809 13075,11809 13075,11749 13083,11749 13115,11796 13115,11749 13122,11749 "
       style="fill:#000000;fill-rule:nonzero" /><path
       id="path153"
       class="fil2"
       d="m 3027.491,2890.6241 0,-60 21,0 c 5,0 8,0 11,1 3,1 6,2 9,4 3,3 6,6 7,10 2,4 2,9 2,14 0,5 -1,9 -2,12 -1,4 -2,6 -4,9 -2,2 -3,4 -5,5 -2,1 -4,2 -7,3 -3,1 -6,1 -10,1 l -22,0 z m 8,-7 13,0 c 4,0 7,0 9,-1 2,-1 4,-2 5,-3 2,-2 3,-4 4,-8 1,-3 2,-7 2,-12 0,-6 -1,-11 -3,-14 -2,-3 -5,-6 -7,-7 -2,-1 -6,-1 -10,-1 l -13,0 0,46 z"
       inkscape:connector-curvature="0"
       style="fill:#000000;fill-rule:nonzero" /><path
       id="path155"
       class="fil2"
       d="m 2959.491,2972.6241 8,2 c -2,6 -5,11 -9,15 -4,3 -10,5 -16,5 -6,0 -12,-1 -16,-4 -4,-3 -7,-6 -9,-11 -2,-5 -3,-10 -3,-16 0,-6 1,-12 4,-16 2,-5 6,-8 10,-11 4,-2 9,-4 14,-4 6,0 11,2 15,5 4,3 7,7 9,13 l -8,2 c -1,-4 -3,-8 -6,-9 -3,-2 -6,-3 -10,-3 -5,0 -8,1 -11,3 -3,2 -5,5 -6,9 -1,4 -2,8 -2,11 0,5 1,10 2,13 1,4 4,7 7,8 3,2 6,3 10,3 4,0 8,-1 11,-4 3,-3 5,-6 6,-11 z"
       inkscape:connector-curvature="0"
       style="fill:#000000;fill-rule:nonzero" /><path
       id="path157"
       class="fil2"
       d="m 2970.491,2993.6241 23,-60 9,0 24,60 -9,0 -7,-18 -25,0 -6,18 -8,0 z m 17,-25 20,0 -6,-17 c -2,-5 -3,-9 -4,-12 -1,4 -2,8 -3,11 l -7,18 z"
       inkscape:connector-curvature="0"
       style="fill:#000000;fill-rule:nonzero" /><path
       id="path159"
       class="fil2"
       d="m 3032.491,2993.6241 0,-60 23,0 c 4,0 7,0 9,1 3,0 5,1 7,3 2,1 4,3 5,6 1,2 2,5 2,8 0,5 -2,9 -5,13 -3,4 -9,5 -18,5 l -15,0 0,24 -8,0 z m 8,-31 15,0 c 5,0 9,-1 11,-3 2,-2 3,-5 3,-8 0,-2 -1,-5 -2,-6 -1,-2 -3,-3 -5,-4 -1,0 -4,-1 -7,-1 l -15,0 0,21 z"
       inkscape:connector-curvature="0"
       style="fill:#000000;fill-rule:nonzero" /><path
       id="path161"
       class="fil2"
       d="m 2935.491,3095.6241 0,-60 12,0 14,42 c 1,4 2,7 3,9 1,-2 2,-5 3,-10 l 14,-42 11,0 0,60 -8,0 0,-50 -17,50 -7,0 -17,-51 0,51 -8,0 z"
       inkscape:connector-curvature="0"
       style="fill:#000000;fill-rule:nonzero" /><polygon
       transform="translate(-10107.509,-8918.3759)"
       id="polygon163"
       class="fil2"
       points="13122,11954 13122,12014 13114,12014 13114,11954 "
       style="fill:#000000;fill-rule:nonzero" /><path
       id="path165"
       class="fil2"
       d="m 3070.491,3074.6241 8,2 c -2,6 -5,11 -9,15 -4,3 -10,5 -16,5 -6,0 -12,-1 -16,-4 -4,-3 -7,-6 -9,-11 -2,-5 -3,-10 -3,-16 0,-6 1,-12 4,-16 2,-5 6,-8 10,-11 4,-2 9,-4 14,-4 6,0 11,2 15,5 4,3 7,7 9,13 l -8,2 c -1,-4 -3,-8 -6,-9 -3,-2 -6,-3 -10,-3 -5,0 -8,1 -11,3 -3,2 -5,5 -6,9 -1,4 -2,8 -2,11 0,5 1,10 2,13 1,4 4,7 7,8 3,2 6,3 10,3 4,0 8,-1 11,-4 3,-3 5,-6 6,-11 z"
       inkscape:connector-curvature="0"
       style="fill:#000000;fill-rule:nonzero" /><path
       id="path167"
       class="fil2"
       d="m 2930.491,3174.6241 0,-7 25,0 0,22 c -4,3 -8,5 -12,7 -4,2 -8,2 -13,2 -6,0 -11,-1 -16,-4 -5,-3 -8,-6 -11,-11 -2,-5 -4,-10 -4,-16 0,-6 1,-11 4,-16 2,-5 6,-9 10,-11 5,-2 10,-4 16,-4 4,0 8,1 12,2 3,1 6,3 8,6 2,3 3,6 5,10 l -7,2 c -1,-3 -2,-5 -3,-7 -1,-2 -3,-3 -6,-4 -2,-1 -5,-2 -8,-2 -4,0 -7,1 -9,2 -3,1 -5,3 -6,4 -2,2 -3,4 -4,6 -2,4 -2,8 -2,12 0,5 1,10 3,13 2,4 5,6 8,8 4,2 7,3 11,3 3,0 7,-1 10,-2 3,-1 6,-3 7,-4 l 0,-11 -18,0 z"
       inkscape:connector-curvature="0"
       style="fill:#000000;fill-rule:nonzero" /><polygon
       transform="translate(-10107.509,-8918.3759)"
       id="polygon169"
       class="fil2"
       points="13122,12116 13114,12116 13083,12070 13083,12116 13075,12116 13075,12057 13083,12057 13115,12104 13115,12057 13122,12057 "
       style="fill:#000000;fill-rule:nonzero" /><path
       id="path171"
       class="fil2"
       d="m 3027.491,3197.6241 0,-60 21,0 c 5,0 8,0 11,1 3,1 6,2 9,4 3,3 6,6 7,10 2,4 2,9 2,14 0,5 -1,9 -2,12 -1,4 -2,6 -4,9 -2,2 -3,4 -5,5 -2,1 -4,2 -7,3 -3,1 -6,1 -10,1 l -22,0 z m 8,-7 13,0 c 4,0 7,0 9,-1 2,-1 4,-2 5,-3 2,-2 3,-4 4,-8 1,-3 2,-7 2,-12 0,-6 -1,-11 -3,-14 -2,-3 -5,-6 -7,-7 -2,-1 -6,-1 -10,-1 l -13,0 0,46 z"
       inkscape:connector-curvature="0"
       style="fill:#000000;fill-rule:nonzero" /><path
       id="path173"
       class="fil2"
       d="m 2981.491,3300.6241 0,-60 26,0 c 5,0 9,1 12,2 3,1 5,3 7,6 2,3 2,6 2,9 0,4 -1,8 -4,11 -3,3 -7,5 -13,6 2,1 4,2 5,3 2,2 4,5 7,8 l 10,16 -10,0 -8,-12 c -2,-4 -4,-6 -6,-8 -2,-2 -3,-3 -4,-4 -1,-1 -2,-1 -4,-2 -1,0 -2,0 -4,0 l -9,0 0,27 -8,0 z m 8,-33 17,0 c 4,0 6,0 8,-1 2,-1 4,-2 5,-4 1,-2 2,-3 2,-5 0,-3 -1,-5 -3,-7 -2,-2 -5,-3 -10,-3 l -19,0 0,20 z"
       inkscape:connector-curvature="0"
       style="fill:#000000;fill-rule:nonzero" /><path
       id="path175"
       class="fil2"
       d="m 3039.491,3303.6241 7,1 c 0,2 1,4 2,5 2,1 4,2 7,2 3,0 6,-1 8,-2 2,-1 3,-3 4,-6 0,-1 1,-5 1,-9 -3,4 -7,6 -12,6 -6,0 -11,-2 -14,-6 -3,-4 -5,-9 -5,-15 0,-4 1,-8 2,-11 1,-3 4,-6 6,-8 3,-2 6,-3 10,-3 5,0 9,2 13,6 l 0,-5 7,0 0,37 c 0,7 -1,12 -2,14 -1,3 -4,5 -7,7 -3,2 -7,2 -11,2 -5,0 -9,-1 -12,-3 -3,-2 -5,-6 -5,-10 z m 6,-26 c 0,6 1,10 3,12 2,3 5,4 8,4 3,0 6,-1 8,-4 2,-3 3,-7 3,-12 0,-5 -1,-9 -4,-12 -2,-3 -5,-4 -8,-4 -3,0 -6,1 -8,4 -2,3 -3,7 -3,12 z"
       inkscape:connector-curvature="0"
       style="fill:#000000;fill-rule:nonzero" /><path
       class="fil1"
       d="m 1351.491,3767.6241 -60,16 0,-8 39,-9 c 4,-1 8,-2 12,-3 -6,-2 -10,-2 -11,-3 l -40,-11 0,-10 30,-9 c 8,-2 15,-4 21,-5 -4,-1 -8,-2 -13,-3 l -38,-9 0,-8 60,16 0,8 -45,13 c -4,1 -6,2 -7,2 3,1 5,1 7,2 l 45,13 0,8 z"
       id="path177"
       inkscape:connector-curvature="0"
       style="fill:#000000;fill-rule:nonzero" /><path
       id="path179"
       class="fil1"
       d="m 1344.491,3663.6241 7,0 0,40 c -2,0 -3,0 -5,-1 -3,-1 -5,-3 -8,-5 -3,-2 -6,-5 -9,-10 -5,-6 -10,-11 -13,-13 -3,-2 -6,-3 -9,-3 -3,0 -5,1 -7,3 -2,2 -3,5 -3,8 0,4 1,6 3,9 2,2 5,3 9,3 l -1,8 c -6,-1 -10,-2 -13,-6 -3,-3 -4,-8 -4,-14 0,-6 2,-10 5,-14 3,-3 7,-5 12,-5 2,0 5,0 7,1 2,1 5,3 7,5 3,2 6,6 11,11 4,4 6,7 8,8 1,1 3,2 4,3 l 0,-29 z"
       inkscape:connector-curvature="0"
       style="fill:#000000;fill-rule:nonzero" /><path
       id="path181"
       class="fil1"
       d="m 1430.491,3749.6241 -7,0 0,-25 22,0 c 3,4 5,8 7,12 2,4 2,8 2,13 0,6 -1,11 -4,16 -3,5 -6,8 -11,11 -5,2 -10,4 -16,4 -6,0 -11,-1 -16,-4 -5,-2 -9,-6 -11,-10 -2,-5 -4,-10 -4,-16 0,-4 1,-8 2,-12 1,-3 3,-6 6,-8 2,-2 6,-3 10,-5 l 2,7 c -3,1 -5,2 -7,3 -2,1 -3,3 -4,6 -1,2 -2,5 -2,8 0,4 1,7 2,9 1,3 3,5 4,6 2,2 4,3 6,4 4,2 8,2 12,2 5,0 10,-1 13,-3 4,-2 6,-5 8,-8 2,-4 3,-7 3,-11 0,-3 -1,-7 -2,-10 -1,-3 -3,-6 -4,-7 l -11,0 0,18 z"
       inkscape:connector-curvature="0"
       style="fill:#000000;fill-rule:nonzero" /><polygon
       transform="translate(-10107.509,-8918.3759)"
       id="polygon183"
       class="fil1"
       points="11562,12585 11562,12593 11515,12624 11562,12624 11562,12632 11502,12632 11502,12624 11549,12592 11502,12592 11502,12585 "
       style="fill:#000000;fill-rule:nonzero" /><path
       id="path185"
       class="fil1"
       d="m 1454.491,3652.6241 -60,0 0,-21 c 0,-5 0,-8 1,-11 1,-3 2,-6 4,-9 3,-3 6,-6 10,-7 4,-2 9,-2 14,-2 5,0 9,1 12,2 4,1 6,2 9,4 2,2 4,3 5,5 1,2 2,4 3,7 1,3 1,6 1,10 l 0,22 z m -7,-8 0,-13 c 0,-4 0,-7 -1,-9 -1,-2 -2,-4 -3,-5 -2,-2 -4,-3 -8,-4 -3,-1 -7,-2 -12,-2 -6,0 -11,1 -14,3 -3,2 -6,5 -7,7 -1,2 -1,6 -1,10 l 0,13 46,0 z"
       inkscape:connector-curvature="0"
       style="fill:#000000;fill-rule:nonzero" /><path
       id="path187"
       class="fil1"
       d="m 1556.491,3767.6241 -60,16 0,-8 39,-9 c 4,-1 8,-2 12,-3 -6,-2 -10,-2 -11,-3 l -40,-11 0,-10 30,-9 c 8,-2 15,-4 21,-5 -4,-1 -8,-2 -13,-3 l -38,-9 0,-8 60,16 0,8 -45,13 c -4,1 -6,2 -7,2 3,1 5,1 7,2 l 45,13 0,8 z"
       inkscape:connector-curvature="0"
       style="fill:#000000;fill-rule:nonzero" /><path
       id="path189"
       class="fil1"
       d="m 1556.491,3674.6241 0,7 -47,0 c 2,2 3,4 5,7 2,3 3,5 4,8 l -7,0 c -2,-4 -4,-8 -7,-11 -3,-3 -5,-5 -8,-7 l 0,-5 60,0 z"
       inkscape:connector-curvature="0"
       style="fill:#000000;fill-rule:nonzero" /><path
       id="path191"
       class="fil1"
       d="m 1635.491,3749.6241 -7,0 0,-25 22,0 c 3,4 5,8 7,12 2,4 2,8 2,13 0,6 -1,11 -4,16 -3,5 -6,8 -11,11 -5,2 -10,4 -16,4 -6,0 -11,-1 -16,-4 -5,-2 -9,-6 -11,-10 -2,-5 -4,-10 -4,-16 0,-4 1,-8 2,-12 1,-3 3,-6 6,-8 2,-2 6,-3 10,-5 l 2,7 c -3,1 -5,2 -7,3 -2,1 -3,3 -4,6 -1,2 -2,5 -2,8 0,4 1,7 2,9 1,3 3,5 4,6 2,2 4,3 6,4 4,2 8,2 12,2 5,0 10,-1 13,-3 4,-2 6,-5 8,-8 2,-4 3,-7 3,-11 0,-3 -1,-7 -2,-10 -1,-3 -3,-6 -4,-7 l -11,0 0,18 z"
       inkscape:connector-curvature="0"
       style="fill:#000000;fill-rule:nonzero" /><polygon
       transform="translate(-10107.509,-8918.3759)"
       id="polygon193"
       class="fil1"
       points="11767,12585 11767,12593 11720,12624 11767,12624 11767,12632 11707,12632 11707,12624 11754,12592 11707,12592 11707,12585 "
       style="fill:#000000;fill-rule:nonzero" /><path
       id="path195"
       class="fil1"
       d="m 1659.491,3652.6241 -60,0 0,-21 c 0,-5 0,-8 1,-11 1,-3 2,-6 4,-9 3,-3 6,-6 10,-7 4,-2 9,-2 14,-2 5,0 9,1 12,2 4,1 6,2 9,4 2,2 4,3 5,5 1,2 2,4 3,7 1,3 1,6 1,10 l 0,22 z m -7,-8 0,-13 c 0,-4 0,-7 -1,-9 -1,-2 -2,-4 -3,-5 -2,-2 -4,-3 -8,-4 -3,-1 -7,-2 -12,-2 -6,0 -11,1 -14,3 -3,2 -6,5 -7,7 -1,2 -1,6 -1,10 l 0,13 46,0 z"
       inkscape:connector-curvature="0"
       style="fill:#000000;fill-rule:nonzero" /><path
       id="path197"
       class="fil1"
       d="m 1761.491,3777.6241 -60,0 0,-23 c 0,-4 0,-7 1,-9 0,-3 1,-5 3,-7 1,-2 3,-4 6,-5 2,-1 5,-2 8,-2 5,0 9,2 13,5 4,3 5,9 5,18 l 0,15 24,0 0,8 z m -31,-8 0,-15 c 0,-5 -1,-9 -3,-11 -2,-2 -5,-3 -8,-3 -2,0 -5,1 -6,2 -2,1 -3,3 -4,5 0,1 -1,4 -1,7 l 0,15 21,0 z"
       inkscape:connector-curvature="0"
       style="fill:#000000;fill-rule:nonzero" /><path
       id="path199"
       class="fil1"
       d="m 1740.491,3679.6241 2,-8 c 6,2 11,5 15,9 3,4 5,10 5,16 0,6 -1,12 -4,16 -3,4 -6,7 -11,9 -5,2 -10,3 -16,3 -6,0 -12,-1 -16,-4 -5,-2 -8,-6 -11,-10 -2,-4 -4,-9 -4,-14 0,-6 2,-11 5,-15 3,-4 7,-7 13,-9 l 2,8 c -4,1 -8,3 -9,6 -2,3 -3,6 -3,10 0,5 1,8 3,11 2,3 5,5 9,6 4,1 8,2 11,2 5,0 10,-1 13,-2 4,-1 7,-4 8,-7 2,-3 3,-6 3,-10 0,-4 -1,-8 -4,-11 -3,-3 -6,-5 -11,-6 z"
       inkscape:connector-curvature="0"
       style="fill:#000000;fill-rule:nonzero" /><path
       id="path201"
       class="fil1"
       d="m 1742.491,3664.6241 -1,-7 c 3,0 5,-1 7,-2 2,-1 3,-3 5,-6 1,-3 2,-6 2,-9 0,-3 0,-6 -1,-8 -1,-2 -2,-4 -4,-5 -2,-1 -3,-2 -5,-2 -2,0 -3,1 -5,2 -1,1 -3,3 -4,5 -1,2 -2,5 -3,11 -1,5 -3,9 -4,12 -2,3 -3,5 -6,6 -2,1 -5,2 -7,2 -3,0 -6,-1 -8,-3 -3,-2 -5,-4 -6,-7 -1,-3 -2,-7 -2,-11 0,-4 1,-8 2,-12 1,-3 4,-6 6,-8 3,-2 6,-3 9,-3 l 1,8 c -4,0 -7,2 -9,4 -2,2 -3,6 -3,10 0,5 1,8 3,10 2,2 4,3 6,3 2,0 4,-1 5,-2 1,-2 3,-5 4,-12 1,-6 3,-11 4,-13 2,-3 4,-6 6,-8 2,-2 5,-2 8,-2 3,0 6,1 9,3 3,2 5,4 7,8 2,3 2,7 2,11 0,5 -1,10 -2,14 -2,4 -4,7 -7,9 -3,2 -7,3 -11,3 z"
       inkscape:connector-curvature="0"
       style="fill:#000000;fill-rule:nonzero" /><path
       id="path203"
       class="fil1"
       d="m 1863.491,3777.6241 -60,0 0,-23 c 0,-4 0,-7 1,-9 0,-3 1,-5 3,-7 1,-2 3,-4 6,-5 2,-1 5,-2 8,-2 5,0 9,2 13,5 4,3 5,9 5,18 l 0,15 24,0 0,8 z m -31,-8 0,-15 c 0,-5 -1,-9 -3,-11 -2,-2 -5,-3 -8,-3 -2,0 -5,1 -6,2 -2,1 -3,3 -4,5 0,1 -1,4 -1,7 l 0,15 21,0 z"
       inkscape:connector-curvature="0"
       style="fill:#000000;fill-rule:nonzero" /><path
       id="path205"
       class="fil1"
       d="m 1863.491,3705.6241 -60,23 0,-9 43,-16 c 3,-1 7,-2 10,-3 -3,-1 -7,-2 -10,-3 l -43,-16 0,-8 60,23 0,8 z"
       inkscape:connector-curvature="0"
       style="fill:#000000;fill-rule:nonzero" /><path
       id="path207"
       class="fil1"
       d="m 1848.491,3669.6241 -1,-7 c 4,-1 7,-2 9,-4 2,-2 3,-4 3,-7 0,-3 -1,-6 -4,-9 -2,-2 -5,-4 -9,-4 -3,0 -6,1 -8,3 -2,2 -3,5 -3,8 0,1 0,3 1,5 l -6,-1 c 0,0 0,-1 0,-1 0,-3 -1,-6 -2,-8 -2,-3 -4,-4 -8,-4 -3,0 -5,1 -7,3 -2,2 -3,4 -3,7 0,3 1,5 3,7 2,2 5,3 8,4 l -1,7 c -5,-1 -9,-3 -11,-6 -3,-3 -4,-7 -4,-12 0,-3 1,-6 2,-9 1,-3 3,-5 6,-6 2,-1 5,-2 8,-2 3,0 5,1 7,2 2,1 4,3 5,6 1,-4 3,-6 5,-8 3,-2 6,-3 10,-3 5,0 10,2 13,6 4,4 5,9 5,14 0,5 -2,10 -5,13 -3,3 -7,5 -12,6 z"
       inkscape:connector-curvature="0"
       style="fill:#000000;fill-rule:nonzero" /><path
       id="path209"
       class="fil1"
       d="m 1966.491,3777.6241 -60,0 0,-23 c 0,-4 0,-7 1,-9 0,-3 1,-5 3,-7 1,-2 3,-4 6,-5 2,-1 5,-2 8,-2 5,0 9,2 13,5 4,3 5,9 5,18 l 0,15 24,0 0,8 z m -31,-8 0,-15 c 0,-5 -1,-9 -3,-11 -2,-2 -5,-3 -8,-3 -2,0 -5,1 -6,2 -2,1 -3,3 -4,5 0,1 -1,4 -1,7 l 0,15 21,0 z"
       inkscape:connector-curvature="0"
       style="fill:#000000;fill-rule:nonzero" /><path
       id="path211"
       class="fil1"
       d="m 1966.491,3705.6241 -60,23 0,-9 43,-16 c 3,-1 7,-2 10,-3 -3,-1 -7,-2 -10,-3 l -43,-16 0,-8 60,23 0,8 z"
       inkscape:connector-curvature="0"
       style="fill:#000000;fill-rule:nonzero" /><path
       id="path213"
       class="fil1"
       d="m 1959.491,3631.6241 7,0 0,40 c -2,0 -3,0 -5,-1 -3,-1 -5,-3 -8,-5 -3,-2 -6,-5 -9,-10 -5,-6 -10,-11 -13,-13 -3,-2 -6,-3 -9,-3 -3,0 -5,1 -7,3 -2,2 -3,5 -3,8 0,4 1,6 3,9 2,2 5,3 9,3 l -1,8 c -6,-1 -10,-2 -13,-6 -3,-3 -4,-8 -4,-14 0,-6 2,-10 5,-14 3,-3 7,-5 12,-5 2,0 5,0 7,1 2,1 5,3 7,5 3,2 6,6 11,11 4,4 6,7 8,8 1,1 3,2 4,3 l 0,-29 z"
       inkscape:connector-curvature="0"
       style="fill:#000000;fill-rule:nonzero" /><path
       id="path215"
       class="fil1"
       d="m 2068.491,3777.6241 -60,0 0,-23 c 0,-4 0,-7 1,-9 0,-3 1,-5 3,-7 1,-2 3,-4 6,-5 2,-1 5,-2 8,-2 5,0 9,2 13,5 4,3 5,9 5,18 l 0,15 24,0 0,8 z m -31,-8 0,-15 c 0,-5 -1,-9 -3,-11 -2,-2 -5,-3 -8,-3 -2,0 -5,1 -6,2 -2,1 -3,3 -4,5 0,1 -1,4 -1,7 l 0,15 21,0 z"
       inkscape:connector-curvature="0"
       style="fill:#000000;fill-rule:nonzero" /><path
       id="path217"
       class="fil1"
       d="m 2068.491,3705.6241 -60,23 0,-9 43,-16 c 3,-1 7,-2 10,-3 -3,-1 -7,-2 -10,-3 l -43,-16 0,-8 60,23 0,8 z"
       inkscape:connector-curvature="0"
       style="fill:#000000;fill-rule:nonzero" /><path
       id="path219"
       class="fil1"
       d="m 2068.491,3642.6241 0,7 -47,0 c 2,2 3,4 5,7 2,3 3,5 4,8 l -7,0 c -2,-4 -4,-8 -7,-11 -3,-3 -5,-5 -8,-7 l 0,-5 60,0 z"
       inkscape:connector-curvature="0"
       style="fill:#000000;fill-rule:nonzero" /><path
       class="fil1"
       d="m 2244.491,3789.6241 -60,-23 0,-9 60,-24 0,9 -18,7 0,25 18,6 0,8 z m -25,-17 0,-20 -17,6 c -5,2 -9,3 -12,4 4,1 8,2 11,3 l 18,7 z"
       id="path221"
       inkscape:connector-curvature="0"
       style="fill:#000000;fill-rule:nonzero" /><path
       id="path223"
       class="fil1"
       d="m 2223.491,3684.6241 2,-8 c 6,2 11,5 15,9 3,4 5,10 5,16 0,6 -1,12 -4,16 -3,4 -6,7 -11,9 -5,2 -10,3 -16,3 -6,0 -12,-1 -16,-4 -5,-2 -8,-6 -11,-10 -2,-4 -4,-9 -4,-14 0,-6 2,-11 5,-15 3,-4 7,-7 13,-9 l 2,8 c -4,1 -8,3 -9,6 -2,3 -3,6 -3,10 0,5 1,8 3,11 2,3 5,5 9,6 4,1 8,2 11,2 5,0 10,-1 13,-2 4,-1 7,-4 8,-7 2,-3 3,-6 3,-10 0,-4 -1,-8 -4,-11 -3,-3 -6,-5 -11,-6 z"
       inkscape:connector-curvature="0"
       style="fill:#000000;fill-rule:nonzero" /><path
       id="path225"
       class="fil1"
       d="m 2244.491,3642.6241 0,7 -47,0 c 2,2 3,4 5,7 2,3 3,5 4,8 l -7,0 c -2,-4 -4,-8 -7,-11 -3,-3 -5,-5 -8,-7 l 0,-5 60,0 z"
       inkscape:connector-curvature="0"
       style="fill:#000000;fill-rule:nonzero" /><path
       id="path227"
       class="fil1"
       d="m 2323.491,3754.6241 -7,0 0,-25 22,0 c 3,4 5,8 7,12 2,4 2,8 2,13 0,6 -1,11 -4,16 -3,5 -6,8 -11,11 -5,2 -10,4 -16,4 -6,0 -11,-1 -16,-4 -5,-2 -9,-6 -11,-10 -2,-5 -4,-10 -4,-16 0,-4 1,-8 2,-12 1,-3 3,-6 6,-8 2,-2 6,-3 10,-5 l 2,7 c -3,1 -5,2 -7,3 -2,1 -3,3 -4,6 -1,2 -2,5 -2,8 0,4 1,7 2,9 1,3 3,5 4,6 2,2 4,3 6,4 4,2 8,2 12,2 5,0 10,-1 13,-3 4,-2 6,-5 8,-8 2,-4 3,-7 3,-11 0,-3 -1,-7 -2,-10 -1,-3 -3,-6 -4,-7 l -11,0 0,18 z"
       inkscape:connector-curvature="0"
       style="fill:#000000;fill-rule:nonzero" /><polygon
       transform="translate(-10107.509,-8918.3759)"
       id="polygon229"
       class="fil1"
       points="12454,12590 12454,12598 12407,12629 12454,12629 12454,12637 12394,12637 12394,12628 12441,12597 12394,12597 12394,12590 "
       style="fill:#000000;fill-rule:nonzero" /><path
       id="path231"
       class="fil1"
       d="m 2346.491,3657.6241 -60,0 0,-21 c 0,-5 0,-8 1,-11 1,-3 2,-6 4,-9 3,-3 6,-6 10,-7 4,-2 9,-2 14,-2 5,0 9,1 12,2 4,1 6,2 9,4 2,2 4,3 5,5 1,2 2,4 3,7 1,3 1,6 1,10 l 0,22 z m -7,-8 0,-13 c 0,-4 0,-7 -1,-9 -1,-2 -2,-4 -3,-5 -2,-2 -4,-3 -8,-4 -3,-1 -7,-2 -12,-2 -6,0 -11,1 -14,3 -3,2 -6,5 -7,7 -1,2 -1,6 -1,10 l 0,13 46,0 z"
       inkscape:connector-curvature="0"
       style="fill:#000000;fill-rule:nonzero" /><path
       id="path233"
       class="fil1"
       d="m 2428.491,3740.6241 2,-8 c 6,2 11,5 15,9 3,4 5,10 5,16 0,6 -1,12 -4,16 -3,4 -6,7 -11,9 -5,2 -10,3 -16,3 -6,0 -12,-1 -16,-4 -5,-2 -8,-6 -11,-10 -2,-4 -4,-9 -4,-14 0,-6 2,-11 5,-15 3,-4 7,-7 13,-9 l 2,8 c -4,1 -8,3 -9,6 -2,3 -3,6 -3,10 0,5 1,8 3,11 2,3 5,5 9,6 4,1 8,2 11,2 5,0 10,-1 13,-2 4,-1 7,-4 8,-7 2,-3 3,-6 3,-10 0,-4 -1,-8 -4,-11 -3,-3 -6,-5 -11,-6 z"
       inkscape:connector-curvature="0"
       style="fill:#000000;fill-rule:nonzero" /><polygon
       transform="translate(-10107.509,-8918.3759)"
       id="polygon235"
       class="fil1"
       points="12497,12594 12556,12594 12556,12602 12528,12602 12528,12633 12556,12633 12556,12641 12497,12641 12497,12633 12521,12633 12521,12602 12497,12602 "
       style="fill:#000000;fill-rule:nonzero" /><path
       id="path237"
       class="fil1"
       d="m 2448.491,3637.6241 0,7 -47,0 c 2,2 3,4 5,7 2,3 3,5 4,8 l -7,0 c -2,-4 -4,-8 -7,-11 -3,-3 -5,-5 -8,-7 l 0,-5 60,0 z"
       inkscape:connector-curvature="0"
       style="fill:#000000;fill-rule:nonzero" /><path
       id="path239"
       class="fil1"
       d="m 2527.491,3754.6241 -7,0 0,-25 22,0 c 3,4 5,8 7,12 2,4 2,8 2,13 0,6 -1,11 -4,16 -3,5 -6,8 -11,11 -5,2 -10,4 -16,4 -6,0 -11,-1 -16,-4 -5,-2 -9,-6 -11,-10 -2,-5 -4,-10 -4,-16 0,-4 1,-8 2,-12 1,-3 3,-6 6,-8 2,-2 6,-3 10,-5 l 2,7 c -3,1 -5,2 -7,3 -2,1 -3,3 -4,6 -1,2 -2,5 -2,8 0,4 1,7 2,9 1,3 3,5 4,6 2,2 4,3 6,4 4,2 8,2 12,2 5,0 10,-1 13,-3 4,-2 6,-5 8,-8 2,-4 3,-7 3,-11 0,-3 -1,-7 -2,-10 -1,-3 -3,-6 -4,-7 l -11,0 0,18 z"
       inkscape:connector-curvature="0"
       style="fill:#000000;fill-rule:nonzero" /><polygon
       transform="translate(-10107.509,-8918.3759)"
       id="polygon241"
       class="fil1"
       points="12659,12590 12659,12598 12612,12629 12659,12629 12659,12637 12599,12637 12599,12628 12646,12597 12599,12597 12599,12590 "
       style="fill:#000000;fill-rule:nonzero" /><path
       id="path243"
       class="fil1"
       d="m 2551.491,3657.6241 -60,0 0,-21 c 0,-5 0,-8 1,-11 1,-3 2,-6 4,-9 3,-3 6,-6 10,-7 4,-2 9,-2 14,-2 5,0 9,1 12,2 4,1 6,2 9,4 2,2 4,3 5,5 1,2 2,4 3,7 1,3 1,6 1,10 l 0,22 z m -7,-8 0,-13 c 0,-4 0,-7 -1,-9 -1,-2 -2,-4 -3,-5 -2,-2 -4,-3 -8,-4 -3,-1 -7,-2 -12,-2 -6,0 -11,1 -14,3 -3,2 -6,5 -7,7 -1,2 -1,6 -1,10 l 0,13 46,0 z"
       inkscape:connector-curvature="0"
       style="fill:#000000;fill-rule:nonzero" /><path
       id="path245"
       class="fil1"
       d="m 2632.491,3740.6241 2,-8 c 6,2 11,5 15,9 3,4 5,10 5,16 0,6 -1,12 -4,16 -3,4 -6,7 -11,9 -5,2 -10,3 -16,3 -6,0 -12,-1 -16,-4 -5,-2 -8,-6 -11,-10 -2,-4 -4,-9 -4,-14 0,-6 2,-11 5,-15 3,-4 7,-7 13,-9 l 2,8 c -4,1 -8,3 -9,6 -2,3 -3,6 -3,10 0,5 1,8 3,11 2,3 5,5 9,6 4,1 8,2 11,2 5,0 10,-1 13,-2 4,-1 7,-4 8,-7 2,-3 3,-6 3,-10 0,-4 -1,-8 -4,-11 -3,-3 -6,-5 -11,-6 z"
       inkscape:connector-curvature="0"
       style="fill:#000000;fill-rule:nonzero" /><polygon
       transform="translate(-10107.509,-8918.3759)"
       id="polygon247"
       class="fil1"
       points="12702,12594 12761,12594 12761,12602 12733,12602 12733,12633 12761,12633 12761,12641 12702,12641 12702,12633 12726,12633 12726,12602 12702,12602 "
       style="fill:#000000;fill-rule:nonzero" /><path
       id="path249"
       class="fil1"
       d="m 2646.491,3626.6241 7,0 0,40 c -2,0 -3,0 -5,-1 -3,-1 -5,-3 -8,-5 -3,-2 -6,-5 -9,-10 -5,-6 -10,-11 -13,-13 -3,-2 -6,-3 -9,-3 -3,0 -5,1 -7,3 -2,2 -3,5 -3,8 0,4 1,6 3,9 2,2 5,3 9,3 l -1,8 c -6,-1 -10,-2 -13,-6 -3,-3 -4,-8 -4,-14 0,-6 2,-10 5,-14 3,-3 7,-5 12,-5 2,0 5,0 7,1 2,1 5,3 7,5 3,2 6,6 11,11 4,4 6,7 8,8 1,1 3,2 4,3 l 0,-29 z"
       inkscape:connector-curvature="0"
       style="fill:#000000;fill-rule:nonzero" /><path
       id="path251"
       class="fil1"
       d="m 2732.491,3754.6241 -7,0 0,-25 22,0 c 3,4 5,8 7,12 2,4 2,8 2,13 0,6 -1,11 -4,16 -3,5 -6,8 -11,11 -5,2 -10,4 -16,4 -6,0 -11,-1 -16,-4 -5,-2 -9,-6 -11,-10 -2,-5 -4,-10 -4,-16 0,-4 1,-8 2,-12 1,-3 3,-6 6,-8 2,-2 6,-3 10,-5 l 2,7 c -3,1 -5,2 -7,3 -2,1 -3,3 -4,6 -1,2 -2,5 -2,8 0,4 1,7 2,9 1,3 3,5 4,6 2,2 4,3 6,4 4,2 8,2 12,2 5,0 10,-1 13,-3 4,-2 6,-5 8,-8 2,-4 3,-7 3,-11 0,-3 -1,-7 -2,-10 -1,-3 -3,-6 -4,-7 l -11,0 0,18 z"
       inkscape:connector-curvature="0"
       style="fill:#000000;fill-rule:nonzero" /><polygon
       transform="translate(-10107.509,-8918.3759)"
       id="polygon253"
       class="fil1"
       points="12864,12590 12864,12598 12817,12629 12864,12629 12864,12637 12804,12637 12804,12628 12851,12597 12804,12597 12804,12590 "
       style="fill:#000000;fill-rule:nonzero" /><path
       id="path255"
       class="fil1"
       d="m 2756.491,3657.6241 -60,0 0,-21 c 0,-5 0,-8 1,-11 1,-3 2,-6 4,-9 3,-3 6,-6 10,-7 4,-2 9,-2 14,-2 5,0 9,1 12,2 4,1 6,2 9,4 2,2 4,3 5,5 1,2 2,4 3,7 1,3 1,6 1,10 l 0,22 z m -7,-8 0,-13 c 0,-4 0,-7 -1,-9 -1,-2 -2,-4 -3,-5 -2,-2 -4,-3 -8,-4 -3,-1 -7,-2 -12,-2 -6,0 -11,1 -14,3 -3,2 -6,5 -7,7 -1,2 -1,6 -1,10 l 0,13 46,0 z"
       inkscape:connector-curvature="0"
       style="fill:#000000;fill-rule:nonzero" /><path
       id="path257"
       class="fil1"
       d="m 2837.491,3740.6241 2,-8 c 6,2 11,5 15,9 3,4 5,10 5,16 0,6 -1,12 -4,16 -3,4 -6,7 -11,9 -5,2 -10,3 -16,3 -6,0 -12,-1 -16,-4 -5,-2 -8,-6 -11,-10 -2,-4 -4,-9 -4,-14 0,-6 2,-11 5,-15 3,-4 7,-7 13,-9 l 2,8 c -4,1 -8,3 -9,6 -2,3 -3,6 -3,10 0,5 1,8 3,11 2,3 5,5 9,6 4,1 8,2 11,2 5,0 10,-1 13,-2 4,-1 7,-4 8,-7 2,-3 3,-6 3,-10 0,-4 -1,-8 -4,-11 -3,-3 -6,-5 -11,-6 z"
       inkscape:connector-curvature="0"
       style="fill:#000000;fill-rule:nonzero" /><polygon
       transform="translate(-10107.509,-8918.3759)"
       id="polygon259"
       class="fil1"
       points="12906,12594 12966,12594 12966,12602 12938,12602 12938,12633 12966,12633 12966,12641 12906,12641 12906,12633 12931,12633 12931,12602 12906,12602 "
       style="fill:#000000;fill-rule:nonzero" /><path
       id="path261"
       class="fil1"
       d="m 2842.491,3665.6241 -1,-7 c 4,-1 7,-2 9,-4 2,-2 3,-4 3,-7 0,-3 -1,-6 -4,-9 -2,-2 -5,-4 -9,-4 -3,0 -6,1 -8,3 -2,2 -3,5 -3,8 0,1 0,3 1,5 l -6,-1 c 0,0 0,-1 0,-1 0,-3 -1,-6 -2,-8 -2,-3 -4,-4 -8,-4 -3,0 -5,1 -7,3 -2,2 -3,4 -3,7 0,3 1,5 3,7 2,2 5,3 8,4 l -1,7 c -5,-1 -9,-3 -11,-6 -3,-3 -4,-7 -4,-12 0,-3 1,-6 2,-9 1,-3 3,-5 6,-6 2,-1 5,-2 8,-2 3,0 5,1 7,2 2,1 4,3 5,6 1,-4 3,-6 5,-8 3,-2 6,-3 10,-3 5,0 10,2 13,6 4,4 5,9 5,14 0,5 -2,10 -5,13 -3,3 -7,5 -12,6 z"
       inkscape:connector-curvature="0"
       style="fill:#000000;fill-rule:nonzero" /><path
       id="path263"
       class="fil1"
       d="m 2937.491,3754.6241 -7,0 0,-25 22,0 c 3,4 5,8 7,12 2,4 2,8 2,13 0,6 -1,11 -4,16 -3,5 -6,8 -11,11 -5,2 -10,4 -16,4 -6,0 -11,-1 -16,-4 -5,-2 -9,-6 -11,-10 -2,-5 -4,-10 -4,-16 0,-4 1,-8 2,-12 1,-3 3,-6 6,-8 2,-2 6,-3 10,-5 l 2,7 c -3,1 -5,2 -7,3 -2,1 -3,3 -4,6 -1,2 -2,5 -2,8 0,4 1,7 2,9 1,3 3,5 4,6 2,2 4,3 6,4 4,2 8,2 12,2 5,0 10,-1 13,-3 4,-2 6,-5 8,-8 2,-4 3,-7 3,-11 0,-3 -1,-7 -2,-10 -1,-3 -3,-6 -4,-7 l -11,0 0,18 z"
       inkscape:connector-curvature="0"
       style="fill:#000000;fill-rule:nonzero" /><polygon
       transform="translate(-10107.509,-8918.3759)"
       id="polygon265"
       class="fil1"
       points="13069,12590 13069,12598 13022,12629 13069,12629 13069,12637 13009,12637 13009,12628 13056,12597 13009,12597 13009,12590 "
       style="fill:#000000;fill-rule:nonzero" /><path
       id="path267"
       class="fil1"
       d="m 2961.491,3657.6241 -60,0 0,-21 c 0,-5 0,-8 1,-11 1,-3 2,-6 4,-9 3,-3 6,-6 10,-7 4,-2 9,-2 14,-2 5,0 9,1 12,2 4,1 6,2 9,4 2,2 4,3 5,5 1,2 2,4 3,7 1,3 1,6 1,10 l 0,22 z m -7,-8 0,-13 c 0,-4 0,-7 -1,-9 -1,-2 -2,-4 -3,-5 -2,-2 -4,-3 -8,-4 -3,-1 -7,-2 -12,-2 -6,0 -11,1 -14,3 -3,2 -6,5 -7,7 -1,2 -1,6 -1,10 l 0,13 46,0 z"
       inkscape:connector-curvature="0"
       style="fill:#000000;fill-rule:nonzero" /><polygon
       transform="translate(-10107.509,-8918.3759)"
       class="fil0 str0"
       points="11014,12216 11277,12214 11277,12153 "
       id="polygon313"
       style="fill:none;stroke:#373435;stroke-width:6.94488001" /><path
       class="fil1"
       d="m 982.491,3451.6241 -24,-90 12,0 13,59 c 1,6 3,12 4,18 2,-10 4,-15 4,-17 l 17,-60 14,0 13,45 c 3,11 5,22 7,32 1,-6 3,-12 5,-19 l 14,-58 12,0 -25,90 -12,0 -19,-68 c -2,-6 -3,-9 -3,-11 -1,4 -2,8 -3,10 l -19,68 -12,0 z"
       id="path315"
       inkscape:connector-curvature="0"
       style="fill:#373435;fill-rule:nonzero" /><path
       id="path317"
       class="fil1"
       d="m 1122.491,3451.6241 -11,0 0,-70 c -3,3 -6,5 -10,8 -4,3 -8,4 -12,6 l 0,-11 c 6,-3 12,-6 16,-11 5,-4 8,-8 10,-12 l 7,0 0,90 z"
       inkscape:connector-curvature="0"
       style="fill:#373435;fill-rule:nonzero" /><circle
       class="fil0 str0"
       cx="1084.491"
       cy="1146.6241"
       r="59"
       id="circle319"
       style="fill:none;stroke:#373435;stroke-width:6.94488001" /><circle
       class="fil0 str0"
       cx="3132.491"
       cy="1146.6241"
       r="59"
       id="circle321"
       style="fill:none;stroke:#373435;stroke-width:6.94488001" /><circle
       class="fil0 str0"
       cx="1084.491"
       cy="3784.624"
       r="59"
       id="circle323"
       style="fill:none;stroke:#373435;stroke-width:6.94488001" /><circle
       class="fil0 str0"
       cx="3132.491"
       cy="3784.624"
       r="59"
       id="circle325"
       style="fill:none;stroke:#373435;stroke-width:6.94488001" /><text
       transform="scale(1.2684849,0.78834207)"
       sodipodi:linespacing="125%"
       id="text3544"
       y="1461.1106"
       x="1358.4932"
       style="font-style:normal;font-weight:normal;font-size:582.91687012px;line-height:125%;font-family:sans-serif;letter-spacing:0px;word-spacing:0px;fill:#000000;fill-opacity:1;stroke:none;stroke-width:1px;stroke-linecap:butt;stroke-linejoin:miter;stroke-opacity:1"
       xml:space="preserve"><tspan
         style="font-style:normal;font-variant:normal;font-weight:normal;font-stretch:normal;font-size:218.59382629px;line-height:125%;font-family:sans-serif;-inkscape-font-specification:'sans-serif, Normal';text-align:start;writing-mode:lr-tb;text-anchor:start"
         y="1461.1106"
         x="1358.4932"
         id="tspan3546"
         sodipodi:role="line">PSLab</tspan></text>
<text
       transform="scale(1.2684849,0.78834207)"
       sodipodi:linespacing="125%"
       id="text3544-2"
       y="1581.5906"
       x="939.95184"
       style="font-style:normal;font-variant:normal;font-weight:normal;font-stretch:normal;font-size:138.89009094px;line-height:125%;font-family:sans-serif;-inkscape-font-specification:'sans-serif, Normal';text-align:start;letter-spacing:0px;word-spacing:0px;writing-mode:lr-tb;text-anchor:start;clip-rule:evenodd;fill:#000000;fill-opacity:1;fill-rule:evenodd;stroke:none;stroke-width:1px;stroke-linecap:butt;stroke-linejoin:miter;stroke-opacity:1;image-rendering:optimizeQuality;shape-rendering:geometricPrecision;text-rendering:geometricPrecision"
       xml:space="preserve"><tspan
         style="font-style:normal;font-variant:normal;font-weight:normal;font-stretch:normal;font-size:83.33405304px;line-height:125%;font-family:sans-serif;-inkscape-font-specification:'sans-serif, Normal';text-align:start;writing-mode:lr-tb;text-anchor:start"
         y="1581.5906"
         x="939.95184"
         id="tspan3546-9"
         sodipodi:role="line">Pocket Science Lab From FOSSASIA</tspan></text>
<path
       id="path2862"
       style="font-style:normal;font-variant:normal;font-weight:normal;font-stretch:normal;font-size:105.93291473px;line-height:20.0000003%;font-family:spaceman;-inkscape-font-specification:spaceman;text-align:start;letter-spacing:-7.99983072;writing-mode:lr-tb;text-anchor:start;fill:#d40000;fill-opacity:1;stroke:none"
       d="m 1823.4538,3006.0117 0,27.624 -97.465,0 c -2.9187,1e-4 -5.4532,0.1418 -7.6037,0.425 -1.5361,0.4251 -3.3026,1.275 -5.2995,2.5499 -3.3794,2.8333 -5.0691,7.2956 -5.0691,13.387 l 0,2.9749 115.4373,-0.425 0,27.8365 -115.4373,0.425 0,90.3093 -38.4791,0 0,-90.3093 -24.1934,0 0,-27.8365 24.1934,0 0,-11.6871 c 0,-6.233 0.6144,-11.4036 1.8433,-15.5119 1.2289,-4.2498 3.7634,-8.1455 7.6037,-11.6871 3.8402,-3.5414 7.9876,-5.808 12.4424,-6.7998 4.4546,-0.9914 9.9845,-1.4873 16.5897,-1.4874 l 115.4373,0.2125"
       inkscape:connector-curvature="0" /><path
       id="path2864"
       style="font-style:normal;font-variant:normal;font-weight:normal;font-stretch:normal;font-size:105.93291473px;line-height:20.0000003%;font-family:spaceman;-inkscape-font-specification:spaceman;text-align:start;letter-spacing:-7.99983072;writing-mode:lr-tb;text-anchor:start;fill:#d40000;fill-opacity:1;stroke:none"
       d="m 1886.0646,3003.2493 123.5017,0 c 13.2101,1e-4 24.4236,4.3207 33.6404,12.962 9.3699,8.4998 14.0549,18.8411 14.0552,31.0239 l 0,34.4238 c 0,12.0412 -4.6853,22.3826 -14.0552,31.0239 -9.2168,8.6413 -20.4303,12.962 -33.6404,12.962 l -123.5017,0 c -13.0569,0 -24.2703,-4.3207 -33.6404,-12.962 -9.3702,-8.6413 -14.0553,-18.9827 -14.0553,-31.0239 l 0,-34.4238 c 0,-12.1828 4.6851,-22.5241 14.0553,-31.0239 9.3701,-8.6413 20.5835,-12.9619 33.6404,-12.962 m 11.5206,27.624 c -5.3764,10e-5 -9.9846,1.7709 -13.8248,5.3123 -3.8403,3.5416 -5.7604,7.7915 -5.7603,12.7496 l 0,29.3239 c -10e-5,4.9582 1.92,9.2081 5.7603,12.7496 3.8402,3.5415 8.4484,5.3123 13.8248,5.3123 l 98.6171,0 c 5.3761,0 9.9844,-1.7708 13.8248,-5.3123 3.84,-3.5415 5.7601,-7.7914 5.7603,-12.7496 l 0,-29.3239 c -2e-4,-4.9581 -1.9203,-9.208 -5.7603,-12.7496 -3.8404,-3.5414 -8.4487,-5.3122 -13.8248,-5.3123 l -98.6171,0"
       inkscape:connector-curvature="0" /><path
       id="path2866"
       style="font-style:normal;font-variant:normal;font-weight:normal;font-stretch:normal;font-size:105.93291473px;line-height:20.0000003%;font-family:spaceman;-inkscape-font-specification:spaceman;text-align:start;letter-spacing:-7.99983072;writing-mode:lr-tb;text-anchor:start;fill:#d40000;fill-opacity:1;stroke:none"
       d="m 2113.9431,3079.5341 c -11.9815,0 -21.7357,-3.1874 -29.2625,-9.5622 -7.3733,-6.5164 -11.0599,-15.2994 -11.0599,-26.3491 0,-14.591 6.2212,-25.1448 18.6636,-31.6613 5.9907,-3.1165 13.2103,-4.6748 21.6588,-4.6749 l 163.1329,0 0,27.8365 -155.5293,0 c -8.4485,1e-4 -12.6727,2.975 -12.6727,8.9248 0,5.9498 4.2242,8.9247 12.6727,8.9246 l 122.1193,0.2125 c 11.9813,1e-4 21.6587,3.2583 29.0322,9.7747 7.5266,6.5165 11.29,15.2995 11.2902,26.349 0,14.8745 -6.2214,25.4283 -18.6635,31.6614 -5.8373,2.9749 -13.0569,4.4623 -21.6589,4.4623 l -170.0453,0 0,-27.8365 162.4417,0.2125 c 8.4483,0 12.6726,-3.0457 12.6727,-9.1372 -10e-5,-5.9497 -4.2244,-8.9246 -12.6727,-8.9246 l -122.1193,-0.2125"
       inkscape:connector-curvature="0" /><path
       id="path2868"
       style="font-style:normal;font-variant:normal;font-weight:normal;font-stretch:normal;font-size:105.93291473px;line-height:20.0000003%;font-family:spaceman;-inkscape-font-specification:spaceman;text-align:start;letter-spacing:-7.99983072;writing-mode:lr-tb;text-anchor:start;fill:#d40000;fill-opacity:1;stroke:none"
       d="m 2335.957,3079.5341 c -11.9816,0 -21.7357,-3.1874 -29.2625,-9.5622 -7.3733,-6.5164 -11.0599,-15.2994 -11.0599,-26.3491 0,-14.591 6.2212,-25.1448 18.6635,-31.6613 5.9907,-3.1165 13.2103,-4.6748 21.6589,-4.6749 l 163.1329,0 0,27.8365 -155.5293,0 c -8.4485,1e-4 -12.6727,2.975 -12.6727,8.9248 0,5.9498 4.2242,8.9247 12.6727,8.9246 l 122.1193,0.2125 c 11.9814,1e-4 21.6587,3.2583 29.0321,9.7747 7.5267,6.5165 11.2901,15.2995 11.2903,26.349 0,14.8745 -6.2214,25.4283 -18.6635,31.6614 -5.8373,2.9749 -13.0569,4.4623 -21.6589,4.4623 l -170.0453,0 0,-27.8365 162.4416,0.2125 c 8.4484,0 12.6726,-3.0457 12.6728,-9.1372 -2e-4,-5.9497 -4.2244,-8.9246 -12.6728,-8.9246 l -122.1192,-0.2125"
       inkscape:connector-curvature="0" /><g
       id="text2859"
       style="font-style:normal;font-variant:normal;font-weight:normal;font-stretch:normal;font-size:72px;font-family:Ethnocentric;-inkscape-font-specification:Ethnocentric;fill:#d40000;fill-opacity:1;stroke:none"
       transform="matrix(2.3041363,0,0,1.8935715,1508.6546,1372.6159)"><path
         id="path2871"
         style="font-size:105px;font-family:spaceman;-inkscape-font-specification:spaceman;letter-spacing:3.77589703;fill:#d40000"
         d="m 68.593375,965.74463 0,-13.755 70.034995,0 c 6.92992,6e-5 12.42492,1.82006 16.485,5.46 2.51991,2.24005 4.23491,4.86505 5.145,7.875 0.62991,2.24004 0.94491,5.39004 0.945,9.45 l 0,35.59497 -78.224995,0 c -5.740013,0 -10.255008,-1.575 -13.545,-4.725 -3.290002,-3.15 -4.935,-7.55996 -4.935,-13.22997 0,-5.66998 1.644998,-10.04497 4.935,-13.125 3.359992,-3.14997 7.874987,-4.72497 13.545,-4.725 l 60.689995,0 0,-0.525 c -7e-5,-4.33996 -1.61007,-6.96496 -4.83,-7.875 -0.98007,-0.27996 -2.48507,-0.41996 -4.515,-0.42 l -65.729995,0 m 75.074995,30.87 0,-8.925 -56.069995,0 c -3.710019,2e-5 -5.565018,1.50502 -5.565,4.515 -1.8e-5,2.94001 1.854981,4.41001 5.565,4.41 l 56.069995,0"
         inkscape:connector-curvature="0" /><path
         id="path2873"
         style="font-size:105px;font-family:spaceman;-inkscape-font-specification:spaceman;letter-spacing:3.77589703;fill:#d40000"
         d="m 201.6981,987.68963 c -5.46002,2e-5 -9.90501,-1.57498 -13.335,-4.725 -3.36,-3.21997 -5.04,-7.55997 -5.04,-13.02 0,-7.20995 2.83499,-12.42495 8.505,-15.645 2.72999,-1.53994 6.01998,-2.30994 9.87,-2.31 l 74.34,0 0,13.755 -70.875,0 c -3.85002,4e-5 -5.77502,1.47004 -5.775,4.41 -2e-5,2.94004 1.92498,4.41003 5.775,4.41 l 55.65,0.105 c 5.45991,3e-5 9.86991,1.61003 13.23,4.83 3.4299,3.22003 5.1449,7.56002 5.145,13.02 -1e-4,7.35001 -2.8351,12.56497 -8.505,15.64497 -2.66009,1.47 -5.95008,2.205 -9.87,2.205 l -77.49,0 0,-13.75497 74.025,0.105 c 3.84992,10e-6 5.77492,-1.50499 5.775,-4.515 -8e-5,-2.93998 -1.92508,-4.40998 -5.775,-4.41 l -55.65,-0.105"
         inkscape:connector-curvature="0" /><path
         id="path2875"
         style="font-size:105px;font-family:spaceman;-inkscape-font-specification:spaceman;letter-spacing:3.77589703;fill:#d40000"
         d="m 313.73555,1010.3696 -17.535,0 0,-58.37997 17.535,0 0,58.37997 m 0,-64.25997 -17.535,0 0,-13.965 17.535,0 0,13.965"
         inkscape:connector-curvature="0" /><path
         id="path2877"
         style="font-size:105px;font-family:spaceman;-inkscape-font-specification:spaceman;letter-spacing:3.77589703;fill:#d40000"
         d="m 339.13982,965.74463 0,-13.755 70.035,0 c 6.92992,6e-5 12.42492,1.82006 16.485,5.46 2.51991,2.24005 4.23491,4.86505 5.145,7.875 0.62991,2.24004 0.94491,5.39004 0.945,9.45 l 0,35.59497 -78.225,0 c -5.74001,0 -10.25501,-1.575 -13.545,-4.725 -3.29,-3.15 -4.935,-7.55996 -4.935,-13.22997 0,-5.66998 1.645,-10.04497 4.935,-13.125 3.35999,-3.14997 7.87499,-4.72497 13.545,-4.725 l 60.69,0 0,-0.525 c -8e-5,-4.33996 -1.61007,-6.96496 -4.83,-7.875 -0.98007,-0.27996 -2.48507,-0.41996 -4.515,-0.42 l -65.73,0 m 75.075,30.87 0,-8.925 -56.07,0 c -3.71002,2e-5 -5.56501,1.50502 -5.565,4.515 -10e-6,2.94001 1.85498,4.41001 5.565,4.41 l 56.07,0"
         inkscape:connector-curvature="0" /></g><text
       transform="matrix(0,-0.99999991,1.0000001,0,0,0)"
       sodipodi:linespacing="125%"
       id="text3620"
       y="3446.2793"
       x="-2409.7781"
       style="font-style:normal;font-weight:normal;font-size:444.44827271px;line-height:125%;font-family:sans-serif;letter-spacing:0px;word-spacing:0px;fill:#000000;fill-opacity:1;stroke:none;stroke-width:1px;stroke-linecap:butt;stroke-linejoin:miter;stroke-opacity:1"
       xml:space="preserve"><tspan
         style="font-style:normal;font-variant:normal;font-weight:normal;font-stretch:normal;font-size:83.33405304px;line-height:125%;font-family:sans-serif;-inkscape-font-specification:'sans-serif, Normal';text-align:start;writing-mode:lr-tb;text-anchor:start"
         y="3446.2793"
         x="-2409.7781"
         id="tspan3622"
         sodipodi:role="line">http://pslab.fossasia.org</tspan></text>
</g></svg>